<?xml version="1.0" encoding="UTF-8" standalone="no"?>
<!DOCTYPE svg PUBLIC "-//W3C//DTD SVG 1.1//EN"
 "http://www.w3.org/Graphics/SVG/1.1/DTD/svg11.dtd">
<!-- Generated by graphviz version 2.43.0 (0)
 -->
<!-- Title: %3 Pages: 1 -->
<svg width="238pt" height="603pt"
 viewBox="0.00 0.00 238.45 603.07" xmlns="http://www.w3.org/2000/svg" xmlns:xlink="http://www.w3.org/1999/xlink">
<g id="graph0" class="graph" transform="scale(1 1) rotate(0) translate(4 599.07)">
<title>%3</title>
<polygon fill="white" stroke="transparent" points="-4,4 -4,-599.07 234.45,-599.07 234.45,4 -4,4"/>
<!-- [] -->
<g id="node1" class="node">
<title>[]</title>
<ellipse fill="none" stroke="black" cx="78" cy="-18" rx="27" ry="18"/>
<text text-anchor="middle" x="78" y="-14.3" font-family="Times,serif" font-size="14.00">[]</text>
</g>
<!-- []&#45;&gt;[] -->
<g id="edge6" class="edge">
<title>[]&#45;&gt;[]</title>
<path fill="none" stroke="black" d="M102.53,-25.75C113.51,-26.49 123,-23.91 123,-18 123,-14.03 118.72,-11.56 112.57,-10.59"/>
<polygon fill="black" stroke="black" points="112.65,-7.09 102.53,-10.25 112.41,-14.09 112.65,-7.09"/>
<text text-anchor="middle" x="144.5" y="-14.3" font-family="Times,serif" font-size="14.00">a, b, c</text>
</g>
<!-- [&#39;q2&#39;] -->
<g id="node2" class="node">
<title>[&#39;q2&#39;]</title>
<ellipse fill="none" stroke="black" cx="89" cy="-577.07" rx="34.39" ry="18"/>
<text text-anchor="middle" x="89" y="-573.37" font-family="Times,serif" font-size="14.00">[&#39;q2&#39;]</text>
</g>
<!-- [&#39;q2&#39;]&#45;&gt;[] -->
<g id="edge9" class="edge">
<title>[&#39;q2&#39;]&#45;&gt;[]</title>
<path fill="none" stroke="black" d="M69.82,-561.87C54.11,-549.31 32.38,-529.68 19,-508.07 4.38,-484.46 0,-476.31 0,-448.53 0,-448.53 0,-448.53 0,-124.45 0,-88.75 29.24,-57.24 51.92,-38.16"/>
<polygon fill="black" stroke="black" points="54.33,-40.72 59.91,-31.72 49.93,-35.27 54.33,-40.72"/>
<text text-anchor="middle" x="13.5" y="-271.74" font-family="Times,serif" font-size="14.00">a, b</text>
</g>
<!-- [&#39;q0&#39;, &#39;q3&#39;] -->
<g id="node5" class="node">
<title>[&#39;q0&#39;, &#39;q3&#39;]</title>
<ellipse fill="aquamarine" stroke="aquamarine" cx="89" cy="-447.53" rx="56.59" ry="56.59"/>
<ellipse fill="none" stroke="aquamarine" cx="89" cy="-447.53" rx="60.59" ry="60.59"/>
<text text-anchor="middle" x="89" y="-443.83" font-family="Times,serif" font-size="14.00">[&#39;q0&#39;, &#39;q3&#39;]</text>
</g>
<!-- [&#39;q2&#39;]&#45;&gt;[&#39;q0&#39;, &#39;q3&#39;] -->
<g id="edge10" class="edge">
<title>[&#39;q2&#39;]&#45;&gt;[&#39;q0&#39;, &#39;q3&#39;]</title>
<path fill="none" stroke="black" d="M89,-558.87C89,-548.05 89,-533.3 89,-518.1"/>
<polygon fill="black" stroke="black" points="92.5,-518.09 89,-508.09 85.5,-518.09 92.5,-518.09"/>
<text text-anchor="middle" x="93" y="-529.87" font-family="Times,serif" font-size="14.00">c</text>
</g>
<!-- [&#39;q1&#39;, &#39;q4&#39;] -->
<g id="node3" class="node">
<title>[&#39;q1&#39;, &#39;q4&#39;]</title>
<ellipse fill="none" stroke="black" cx="154" cy="-275.44" rx="56.59" ry="56.59"/>
<ellipse fill="none" stroke="black" cx="154" cy="-275.44" rx="60.59" ry="60.59"/>
<text text-anchor="middle" x="154" y="-271.74" font-family="Times,serif" font-size="14.00">[&#39;q1&#39;, &#39;q4&#39;]</text>
</g>
<!-- [&#39;q1&#39;, &#39;q4&#39;]&#45;&gt;[] -->
<g id="edge5" class="edge">
<title>[&#39;q1&#39;, &#39;q4&#39;]&#45;&gt;[]</title>
<path fill="none" stroke="black" d="M130.18,-219.68C123.07,-202.08 115.67,-182.36 110,-163.89 97.6,-123.54 87.96,-75.48 82.63,-46.11"/>
<polygon fill="black" stroke="black" points="86.06,-45.42 80.87,-36.18 79.17,-46.64 86.06,-45.42"/>
<text text-anchor="middle" x="114" y="-121.75" font-family="Times,serif" font-size="14.00">c</text>
</g>
<!-- [&#39;q1&#39;, &#39;q4&#39;]&#45;&gt;[&#39;q2&#39;] -->
<g id="edge4" class="edge">
<title>[&#39;q1&#39;, &#39;q4&#39;]&#45;&gt;[&#39;q2&#39;]</title>
<path fill="none" stroke="black" d="M168.03,-334.59C176.78,-382.99 182.41,-452.68 159,-508.07 150.65,-527.82 133.45,-544.67 118.19,-556.65"/>
<polygon fill="black" stroke="black" points="115.89,-554 109.98,-562.79 120.08,-559.6 115.89,-554"/>
<text text-anchor="middle" x="181" y="-443.83" font-family="Times,serif" font-size="14.00">b</text>
</g>
<!-- [&#39;q4&#39;] -->
<g id="node4" class="node">
<title>[&#39;q4&#39;]</title>
<ellipse fill="none" stroke="black" cx="165" cy="-125.45" rx="34.4" ry="34.4"/>
<ellipse fill="none" stroke="black" cx="165" cy="-125.45" rx="38.39" ry="38.39"/>
<text text-anchor="middle" x="165" y="-121.75" font-family="Times,serif" font-size="14.00">[&#39;q4&#39;]</text>
</g>
<!-- [&#39;q1&#39;, &#39;q4&#39;]&#45;&gt;[&#39;q4&#39;] -->
<g id="edge3" class="edge">
<title>[&#39;q1&#39;, &#39;q4&#39;]&#45;&gt;[&#39;q4&#39;]</title>
<path fill="none" stroke="black" d="M158.44,-214.67C159.45,-201.13 160.51,-186.92 161.47,-173.96"/>
<polygon fill="black" stroke="black" points="164.97,-174.1 162.22,-163.87 157.99,-173.58 164.97,-174.1"/>
<text text-anchor="middle" x="165.5" y="-185.69" font-family="Times,serif" font-size="14.00">a</text>
</g>
<!-- [&#39;q4&#39;]&#45;&gt;[] -->
<g id="edge8" class="edge">
<title>[&#39;q4&#39;]&#45;&gt;[]</title>
<path fill="none" stroke="black" d="M144.36,-92.59C135.79,-80.14 125.43,-66 115,-54 110.74,-49.09 105.87,-44.12 101.1,-39.52"/>
<polygon fill="black" stroke="black" points="103.48,-36.95 93.79,-32.67 98.69,-42.06 103.48,-36.95"/>
<text text-anchor="middle" x="140" y="-57.8" font-family="Times,serif" font-size="14.00">b, c</text>
</g>
<!-- [&#39;q4&#39;]&#45;&gt;[&#39;q4&#39;] -->
<g id="edge7" class="edge">
<title>[&#39;q4&#39;]&#45;&gt;[&#39;q4&#39;]</title>
<path fill="none" stroke="black" d="M201.92,-137.05C212.9,-136.7 221.45,-132.83 221.45,-125.45 221.45,-120.6 217.77,-117.27 212.13,-115.45"/>
<polygon fill="black" stroke="black" points="212.34,-111.94 201.92,-113.85 211.25,-118.86 212.34,-111.94"/>
<text text-anchor="middle" x="225.95" y="-121.75" font-family="Times,serif" font-size="14.00">a</text>
</g>
<!-- [&#39;q0&#39;, &#39;q3&#39;]&#45;&gt;[] -->
<g id="edge2" class="edge">
<title>[&#39;q0&#39;, &#39;q3&#39;]&#45;&gt;[]</title>
<path fill="none" stroke="black" d="M86.01,-386.87C85.27,-370.39 84.53,-352.5 84,-335.98 80.57,-228.93 78.89,-101.47 78.28,-46.49"/>
<polygon fill="black" stroke="black" points="81.77,-46.15 78.17,-36.18 74.77,-46.22 81.77,-46.15"/>
<text text-anchor="middle" x="94" y="-185.69" font-family="Times,serif" font-size="14.00">b, c</text>
</g>
<!-- [&#39;q0&#39;, &#39;q3&#39;]&#45;&gt;[&#39;q1&#39;, &#39;q4&#39;] -->
<g id="edge1" class="edge">
<title>[&#39;q0&#39;, &#39;q3&#39;]&#45;&gt;[&#39;q1&#39;, &#39;q4&#39;]</title>
<path fill="none" stroke="black" d="M110.28,-390.84C116.29,-375.12 122.87,-357.89 129.07,-341.67"/>
<polygon fill="black" stroke="black" points="132.37,-342.85 132.67,-332.26 125.83,-340.35 132.37,-342.85"/>
<text text-anchor="middle" x="128.5" y="-357.78" font-family="Times,serif" font-size="14.00">a</text>
</g>
</g>
</svg>
