<?xml version="1.0" encoding="UTF-8" standalone="no"?>
<!DOCTYPE svg PUBLIC "-//W3C//DTD SVG 1.1//EN"
 "http://www.w3.org/Graphics/SVG/1.1/DTD/svg11.dtd">
<!-- Generated by graphviz version 2.43.0 (0)
 -->
<!-- Title: %3 Pages: 1 -->
<svg width="314pt" height="603pt"
 viewBox="0.00 0.00 313.54 603.07" xmlns="http://www.w3.org/2000/svg" xmlns:xlink="http://www.w3.org/1999/xlink">
<g id="graph0" class="graph" transform="scale(1 1) rotate(0) translate(4 599.07)">
<title>%3</title>
<polygon fill="white" stroke="transparent" points="-4,4 -4,-599.07 309.54,-599.07 309.54,4 -4,4"/>
<!-- [] -->
<g id="node1" class="node">
<title>[]</title>
<ellipse fill="none" stroke="black" cx="101" cy="-18" rx="27" ry="18"/>
<text text-anchor="middle" x="101" y="-14.3" font-family="Times,serif" font-size="14.00">[]</text>
</g>
<!-- []&#45;&gt;[] -->
<g id="edge6" class="edge">
<title>[]&#45;&gt;[]</title>
<path fill="none" stroke="black" d="M125.53,-25.75C136.51,-26.49 146,-23.91 146,-18 146,-14.03 141.72,-11.56 135.57,-10.59"/>
<polygon fill="black" stroke="black" points="135.65,-7.09 125.53,-10.25 135.41,-14.09 135.65,-7.09"/>
<text text-anchor="middle" x="167.5" y="-14.3" font-family="Times,serif" font-size="14.00">a, b, c</text>
</g>
<!-- [&#39;q2&#39;] -->
<g id="node2" class="node">
<title>[&#39;q2&#39;]</title>
<ellipse fill="none" stroke="black" cx="68" cy="-577.07" rx="34.39" ry="18"/>
<text text-anchor="middle" x="68" y="-573.37" font-family="Times,serif" font-size="14.00">[&#39;q2&#39;]</text>
</g>
<!-- [&#39;q2&#39;]&#45;&gt;[] -->
<g id="edge9" class="edge">
<title>[&#39;q2&#39;]&#45;&gt;[]</title>
<path fill="none" stroke="black" d="M53.25,-560.59C33.25,-537.91 0,-493.45 0,-448.53 0,-448.53 0,-448.53 0,-124.45 0,-83.1 41.01,-51.63 70.77,-34.24"/>
<polygon fill="black" stroke="black" points="72.57,-37.24 79.58,-29.3 69.15,-31.13 72.57,-37.24"/>
<text text-anchor="middle" x="13.5" y="-271.74" font-family="Times,serif" font-size="14.00">a, b</text>
</g>
<!-- [&#39;q3&#39;] -->
<g id="node4" class="node">
<title>[&#39;q3&#39;]</title>
<ellipse fill="none" stroke="black" cx="68" cy="-447.53" rx="34.4" ry="34.4"/>
<ellipse fill="none" stroke="black" cx="68" cy="-447.53" rx="38.39" ry="38.39"/>
<text text-anchor="middle" x="68" y="-443.83" font-family="Times,serif" font-size="14.00">[&#39;q3&#39;]</text>
</g>
<!-- [&#39;q2&#39;]&#45;&gt;[&#39;q3&#39;] -->
<g id="edge10" class="edge">
<title>[&#39;q2&#39;]&#45;&gt;[&#39;q3&#39;]</title>
<path fill="none" stroke="black" d="M68,-558.87C68,-542.85 68,-518.2 68,-496.25"/>
<polygon fill="black" stroke="black" points="71.5,-496.08 68,-486.08 64.5,-496.08 71.5,-496.08"/>
<text text-anchor="middle" x="72" y="-529.87" font-family="Times,serif" font-size="14.00">c</text>
</g>
<!-- [&#39;q4&#39;] -->
<g id="node3" class="node">
<title>[&#39;q4&#39;]</title>
<ellipse fill="none" stroke="black" cx="165" cy="-125.45" rx="34.4" ry="34.4"/>
<ellipse fill="none" stroke="black" cx="165" cy="-125.45" rx="38.39" ry="38.39"/>
<text text-anchor="middle" x="165" y="-121.75" font-family="Times,serif" font-size="14.00">[&#39;q4&#39;]</text>
</g>
<!-- [&#39;q4&#39;]&#45;&gt;[] -->
<g id="edge8" class="edge">
<title>[&#39;q4&#39;]&#45;&gt;[]</title>
<path fill="none" stroke="black" d="M145.45,-92.24C135.98,-76.64 124.79,-58.2 116.01,-43.72"/>
<polygon fill="black" stroke="black" points="118.8,-41.59 110.62,-34.85 112.82,-45.22 118.8,-41.59"/>
<text text-anchor="middle" x="145" y="-57.8" font-family="Times,serif" font-size="14.00">b, c</text>
</g>
<!-- [&#39;q4&#39;]&#45;&gt;[&#39;q4&#39;] -->
<g id="edge7" class="edge">
<title>[&#39;q4&#39;]&#45;&gt;[&#39;q4&#39;]</title>
<path fill="none" stroke="black" d="M201.92,-137.05C212.9,-136.7 221.45,-132.83 221.45,-125.45 221.45,-120.6 217.77,-117.27 212.13,-115.45"/>
<polygon fill="black" stroke="black" points="212.34,-111.94 201.92,-113.85 211.25,-118.86 212.34,-111.94"/>
<text text-anchor="middle" x="225.95" y="-121.75" font-family="Times,serif" font-size="14.00">a</text>
</g>
<!-- [&#39;q3&#39;]&#45;&gt;[] -->
<g id="edge12" class="edge">
<title>[&#39;q3&#39;]&#45;&gt;[]</title>
<path fill="none" stroke="black" d="M67.69,-408.75C67.62,-362.84 68.44,-283.05 74,-214.89 78.94,-154.32 89.96,-83.85 96.29,-46.13"/>
<polygon fill="black" stroke="black" points="99.79,-46.41 98.01,-35.96 92.89,-45.24 99.79,-46.41"/>
<text text-anchor="middle" x="90" y="-185.69" font-family="Times,serif" font-size="14.00">b, c</text>
</g>
<!-- [&#39;q1&#39;, &#39;q4&#39;] -->
<g id="node5" class="node">
<title>[&#39;q1&#39;, &#39;q4&#39;]</title>
<ellipse fill="none" stroke="black" cx="144" cy="-275.44" rx="56.59" ry="56.59"/>
<ellipse fill="none" stroke="black" cx="144" cy="-275.44" rx="60.59" ry="60.59"/>
<text text-anchor="middle" x="144" y="-271.74" font-family="Times,serif" font-size="14.00">[&#39;q1&#39;, &#39;q4&#39;]</text>
</g>
<!-- [&#39;q3&#39;]&#45;&gt;[&#39;q1&#39;, &#39;q4&#39;] -->
<g id="edge11" class="edge">
<title>[&#39;q3&#39;]&#45;&gt;[&#39;q1&#39;, &#39;q4&#39;]</title>
<path fill="none" stroke="black" d="M83.38,-412.11C92.61,-391.45 104.64,-364.53 115.55,-340.11"/>
<polygon fill="black" stroke="black" points="118.78,-341.46 119.67,-330.9 112.39,-338.6 118.78,-341.46"/>
<text text-anchor="middle" x="113.5" y="-357.78" font-family="Times,serif" font-size="14.00">a</text>
</g>
<!-- [&#39;q1&#39;, &#39;q4&#39;]&#45;&gt;[] -->
<g id="edge5" class="edge">
<title>[&#39;q1&#39;, &#39;q4&#39;]&#45;&gt;[]</title>
<path fill="none" stroke="black" d="M123.92,-218.27C118.52,-201.03 113.27,-181.87 110,-163.89 102.63,-123.44 101,-75.7 100.78,-46.39"/>
<polygon fill="black" stroke="black" points="104.28,-46.1 100.76,-36.11 97.28,-46.12 104.28,-46.1"/>
<text text-anchor="middle" x="114" y="-121.75" font-family="Times,serif" font-size="14.00">c</text>
</g>
<!-- [&#39;q1&#39;, &#39;q4&#39;]&#45;&gt;[&#39;q2&#39;] -->
<g id="edge4" class="edge">
<title>[&#39;q1&#39;, &#39;q4&#39;]&#45;&gt;[&#39;q2&#39;]</title>
<path fill="none" stroke="black" d="M144.26,-336.39C142.66,-384.3 136.25,-452.41 115,-508.07 108.85,-524.2 98.1,-540.18 88.44,-552.59"/>
<polygon fill="black" stroke="black" points="85.55,-550.59 81.99,-560.57 91,-554.99 85.55,-550.59"/>
<text text-anchor="middle" x="146" y="-443.83" font-family="Times,serif" font-size="14.00">b</text>
</g>
<!-- [&#39;q1&#39;, &#39;q4&#39;]&#45;&gt;[&#39;q4&#39;] -->
<g id="edge3" class="edge">
<title>[&#39;q1&#39;, &#39;q4&#39;]&#45;&gt;[&#39;q4&#39;]</title>
<path fill="none" stroke="black" d="M152.42,-215.1C154.37,-201.39 156.41,-186.99 158.27,-173.87"/>
<polygon fill="black" stroke="black" points="161.78,-174.05 159.72,-163.66 154.85,-173.07 161.78,-174.05"/>
<text text-anchor="middle" x="161.5" y="-185.69" font-family="Times,serif" font-size="14.00">a</text>
</g>
<!-- [&#39;q0&#39;, &#39;q3&#39;] -->
<g id="node6" class="node">
<title>[&#39;q0&#39;, &#39;q3&#39;]</title>
<ellipse fill="aquamarine" stroke="aquamarine" cx="245" cy="-447.53" rx="56.59" ry="56.59"/>
<ellipse fill="none" stroke="aquamarine" cx="245" cy="-447.53" rx="60.59" ry="60.59"/>
<text text-anchor="middle" x="245" y="-443.83" font-family="Times,serif" font-size="14.00">[&#39;q0&#39;, &#39;q3&#39;]</text>
</g>
<!-- [&#39;q0&#39;, &#39;q3&#39;]&#45;&gt;[] -->
<g id="edge2" class="edge">
<title>[&#39;q0&#39;, &#39;q3&#39;]&#45;&gt;[]</title>
<path fill="none" stroke="black" d="M261.14,-389.04C278.81,-313.4 297.48,-179.28 239,-87 216.62,-51.68 170,-34.13 137.16,-25.82"/>
<polygon fill="black" stroke="black" points="137.57,-22.32 127.03,-23.44 135.96,-29.14 137.57,-22.32"/>
<text text-anchor="middle" x="288" y="-185.69" font-family="Times,serif" font-size="14.00">b, c</text>
</g>
<!-- [&#39;q0&#39;, &#39;q3&#39;]&#45;&gt;[&#39;q1&#39;, &#39;q4&#39;] -->
<g id="edge1" class="edge">
<title>[&#39;q0&#39;, &#39;q3&#39;]&#45;&gt;[&#39;q1&#39;, &#39;q4&#39;]</title>
<path fill="none" stroke="black" d="M214.42,-395.03C203.45,-376.55 190.97,-355.55 179.61,-336.41"/>
<polygon fill="black" stroke="black" points="182.59,-334.57 174.47,-327.76 176.57,-338.14 182.59,-334.57"/>
<text text-anchor="middle" x="202.5" y="-357.78" font-family="Times,serif" font-size="14.00">a</text>
</g>
</g>
</svg>
