<?xml version="1.0" encoding="UTF-8" standalone="no"?>
<!DOCTYPE svg PUBLIC "-//W3C//DTD SVG 1.1//EN"
 "http://www.w3.org/Graphics/SVG/1.1/DTD/svg11.dtd">
<!-- Generated by graphviz version 2.43.0 (0)
 -->
<!-- Title: %3 Pages: 1 -->
<svg width="198pt" height="262pt"
 viewBox="0.00 0.00 197.75 262.49" xmlns="http://www.w3.org/2000/svg" xmlns:xlink="http://www.w3.org/1999/xlink">
<g id="graph0" class="graph" transform="scale(1 1) rotate(0) translate(4 258.49)">
<title>%3</title>
<polygon fill="white" stroke="transparent" points="-4,4 -4,-258.49 193.75,-258.49 193.75,4 -4,4"/>
<!-- q2 -->
<g id="node1" class="node">
<title>q2</title>
<ellipse fill="none" stroke="black" cx="162.75" cy="-231.74" rx="27" ry="18"/>
<text text-anchor="middle" x="162.75" y="-228.04" font-family="Times,serif" font-size="14.00">q2</text>
</g>
<!-- q3 -->
<g id="node3" class="node">
<title>q3</title>
<ellipse fill="none" stroke="black" cx="53.75" cy="-131.24" rx="22.96" ry="22.96"/>
<ellipse fill="none" stroke="black" cx="53.75" cy="-131.24" rx="27" ry="27"/>
<text text-anchor="middle" x="53.75" y="-127.54" font-family="Times,serif" font-size="14.00">q3</text>
</g>
<!-- q2&#45;&gt;q3 -->
<g id="edge4" class="edge">
<title>q2&#45;&gt;q3</title>
<path fill="none" stroke="black" d="M148.99,-215.85C138.35,-204.56 123.05,-188.84 108.75,-175.99 100.56,-168.64 91.32,-161.04 82.78,-154.27"/>
<polygon fill="black" stroke="black" points="84.9,-151.49 74.87,-148.08 80.59,-157 84.9,-151.49"/>
<text text-anchor="middle" x="127.75" y="-179.79" font-family="Times,serif" font-size="14.00">c</text>
</g>
<!-- q1 -->
<g id="node2" class="node">
<title>q1</title>
<ellipse fill="none" stroke="black" cx="125.75" cy="-26.75" rx="27" ry="18"/>
<text text-anchor="middle" x="125.75" y="-23.05" font-family="Times,serif" font-size="14.00">q1</text>
</g>
<!-- q1&#45;&gt;q2 -->
<g id="edge3" class="edge">
<title>q1&#45;&gt;q2</title>
<path fill="none" stroke="black" d="M128.86,-44.8C135.29,-80.11 150.12,-161.45 157.85,-203.88"/>
<polygon fill="black" stroke="black" points="154.42,-204.57 159.66,-213.78 161.31,-203.32 154.42,-204.57"/>
<text text-anchor="middle" x="153.75" y="-127.54" font-family="Times,serif" font-size="14.00">b</text>
</g>
<!-- q3&#45;&gt;q1 -->
<g id="edge5" class="edge">
<title>q3&#45;&gt;q1</title>
<path fill="none" stroke="black" d="M68.67,-109.01C80.38,-92.33 96.7,-69.11 108.88,-51.75"/>
<polygon fill="black" stroke="black" points="111.95,-53.48 114.84,-43.28 106.22,-49.45 111.95,-53.48"/>
<text text-anchor="middle" x="98.25" y="-75.3" font-family="Times,serif" font-size="14.00">a</text>
</g>
<!-- q4 -->
<g id="node4" class="node">
<title>q4</title>
<ellipse fill="none" stroke="black" cx="26.75" cy="-26.75" rx="22.96" ry="22.96"/>
<ellipse fill="none" stroke="black" cx="26.75" cy="-26.75" rx="27" ry="27"/>
<text text-anchor="middle" x="26.75" y="-23.05" font-family="Times,serif" font-size="14.00">q4</text>
</g>
<!-- q3&#45;&gt;q4 -->
<g id="edge6" class="edge">
<title>q3&#45;&gt;q4</title>
<path fill="none" stroke="black" d="M47.14,-105.17C43.78,-92.39 39.63,-76.64 35.95,-62.69"/>
<polygon fill="black" stroke="black" points="39.31,-61.7 33.38,-52.92 32.54,-63.48 39.31,-61.7"/>
<text text-anchor="middle" x="47.25" y="-75.3" font-family="Times,serif" font-size="14.00">a</text>
</g>
<!-- q4&#45;&gt;q4 -->
<g id="edge7" class="edge">
<title>q4&#45;&gt;q4</title>
<path fill="none" stroke="black" d="M52.05,-36.41C62.57,-37.08 71.5,-33.86 71.5,-26.75 71.5,-22.08 67.65,-19.09 62.04,-17.77"/>
<polygon fill="black" stroke="black" points="62.27,-14.28 52.05,-17.08 61.78,-21.27 62.27,-14.28"/>
<text text-anchor="middle" x="76" y="-23.05" font-family="Times,serif" font-size="14.00">a</text>
</g>
<!-- q0 -->
<g id="node5" class="node">
<title>q0</title>
<ellipse fill="aquamarine" stroke="aquamarine" cx="78.75" cy="-231.74" rx="23" ry="23"/>
<text text-anchor="middle" x="78.75" y="-228.04" font-family="Times,serif" font-size="14.00">q0</text>
</g>
<!-- q0&#45;&gt;q1 -->
<g id="edge1" class="edge">
<title>q0&#45;&gt;q1</title>
<path fill="none" stroke="black" d="M92.49,-213.46C97.12,-206.8 101.84,-198.88 104.75,-190.99 121.55,-145.47 125.3,-88.52 125.92,-55.32"/>
<polygon fill="black" stroke="black" points="129.43,-55.06 126.03,-45.03 122.43,-54.99 129.43,-55.06"/>
<text text-anchor="middle" x="127.25" y="-127.54" font-family="Times,serif" font-size="14.00">a</text>
</g>
<!-- q0&#45;&gt;q3 -->
<g id="edge2" class="edge">
<title>q0&#45;&gt;q3</title>
<path fill="none" stroke="black" d="M64.19,-214.11C59.23,-207.4 54.3,-199.28 51.75,-190.99 49.52,-183.75 48.75,-175.77 48.79,-168.08"/>
<polygon fill="black" stroke="black" points="52.29,-168.04 49.27,-157.88 45.3,-167.71 52.29,-168.04"/>
<text text-anchor="middle" x="78.25" y="-179.79" font-family="Times,serif" font-size="14.00">lambda</text>
</g>
</g>
</svg>
