<?xml version="1.0" encoding="UTF-8" standalone="no"?>
<!DOCTYPE svg PUBLIC "-//W3C//DTD SVG 1.1//EN"
 "http://www.w3.org/Graphics/SVG/1.1/DTD/svg11.dtd">
<!-- Generated by graphviz version 2.43.0 (0)
 -->
<!-- Title: %3 Pages: 1 -->
<svg width="485pt" height="1038pt"
 viewBox="0.00 0.00 484.74 1038.25" xmlns="http://www.w3.org/2000/svg" xmlns:xlink="http://www.w3.org/1999/xlink">
<g id="graph0" class="graph" transform="scale(1 1) rotate(0) translate(4 1034.25)">
<title>%3</title>
<polygon fill="white" stroke="transparent" points="-4,4 -4,-1034.25 480.74,-1034.25 480.74,4 -4,4"/>
<!-- [&#39;q6&#39;, &#39;q7&#39;] -->
<g id="node1" class="node">
<title>[&#39;q6&#39;, &#39;q7&#39;]</title>
<ellipse fill="none" stroke="black" cx="67.45" cy="-991.8" rx="56.59" ry="18"/>
<text text-anchor="middle" x="67.45" y="-988.1" font-family="Times,serif" font-size="14.00">[&#39;q6&#39;, &#39;q7&#39;]</text>
</g>
<!-- [&#39;q6&#39;] -->
<g id="node4" class="node">
<title>[&#39;q6&#39;]</title>
<ellipse fill="none" stroke="black" cx="34.45" cy="-819.06" rx="34.39" ry="18"/>
<text text-anchor="middle" x="34.45" y="-815.36" font-family="Times,serif" font-size="14.00">[&#39;q6&#39;]</text>
</g>
<!-- [&#39;q6&#39;, &#39;q7&#39;]&#45;&gt;[&#39;q6&#39;] -->
<g id="edge14" class="edge">
<title>[&#39;q6&#39;, &#39;q7&#39;]&#45;&gt;[&#39;q6&#39;]</title>
<path fill="none" stroke="black" d="M57.07,-974.01C51.05,-963.35 43.98,-949.04 40.45,-935.35 32.85,-905.9 32.15,-870.85 32.84,-847.19"/>
<polygon fill="black" stroke="black" points="36.34,-847.31 33.24,-837.18 29.34,-847.04 36.34,-847.31"/>
<text text-anchor="middle" x="45.45" y="-924.15" font-family="Times,serif" font-size="14.00">b</text>
</g>
<!-- [&#39;q4&#39;, &#39;q6&#39;, &#39;q7&#39;] -->
<g id="node7" class="node">
<title>[&#39;q4&#39;, &#39;q6&#39;, &#39;q7&#39;]</title>
<ellipse fill="none" stroke="black" cx="198.45" cy="-819.06" rx="79.1" ry="79.1"/>
<ellipse fill="none" stroke="black" cx="198.45" cy="-819.06" rx="83.09" ry="83.09"/>
<text text-anchor="middle" x="198.45" y="-815.36" font-family="Times,serif" font-size="14.00">[&#39;q4&#39;, &#39;q6&#39;, &#39;q7&#39;]</text>
</g>
<!-- [&#39;q6&#39;, &#39;q7&#39;]&#45;&gt;[&#39;q4&#39;, &#39;q6&#39;, &#39;q7&#39;] -->
<g id="edge13" class="edge">
<title>[&#39;q6&#39;, &#39;q7&#39;]&#45;&gt;[&#39;q4&#39;, &#39;q6&#39;, &#39;q7&#39;]</title>
<path fill="none" stroke="black" d="M80.25,-974.12C94.67,-955.32 119.09,-923.49 142.01,-893.62"/>
<polygon fill="black" stroke="black" points="144.8,-895.74 148.11,-885.67 139.24,-891.47 144.8,-895.74"/>
<text text-anchor="middle" x="125.95" y="-924.15" font-family="Times,serif" font-size="14.00">a</text>
</g>
<!-- [&#39;q2&#39;] -->
<g id="node2" class="node">
<title>[&#39;q2&#39;]</title>
<ellipse fill="none" stroke="black" cx="365.45" cy="-494.68" rx="34.39" ry="18"/>
<text text-anchor="middle" x="365.45" y="-490.98" font-family="Times,serif" font-size="14.00">[&#39;q2&#39;]</text>
</g>
<!-- [&#39;q2&#39;]&#45;&gt;[&#39;q2&#39;] -->
<g id="edge7" class="edge">
<title>[&#39;q2&#39;]&#45;&gt;[&#39;q2&#39;]</title>
<path fill="none" stroke="black" d="M396.68,-502.53C408.31,-502.79 417.89,-500.17 417.89,-494.68 417.89,-490.9 413.37,-488.48 406.75,-487.42"/>
<polygon fill="black" stroke="black" points="406.87,-483.92 396.68,-486.82 406.45,-490.91 406.87,-483.92"/>
<text text-anchor="middle" x="422.39" y="-490.98" font-family="Times,serif" font-size="14.00">a</text>
</g>
<!-- [&#39;q2&#39;, &#39;q3&#39;] -->
<g id="node3" class="node">
<title>[&#39;q2&#39;, &#39;q3&#39;]</title>
<ellipse fill="none" stroke="black" cx="365.45" cy="-407.68" rx="56.59" ry="18"/>
<text text-anchor="middle" x="365.45" y="-403.98" font-family="Times,serif" font-size="14.00">[&#39;q2&#39;, &#39;q3&#39;]</text>
</g>
<!-- [&#39;q2&#39;]&#45;&gt;[&#39;q2&#39;, &#39;q3&#39;] -->
<g id="edge8" class="edge">
<title>[&#39;q2&#39;]&#45;&gt;[&#39;q2&#39;, &#39;q3&#39;]</title>
<path fill="none" stroke="black" d="M356.69,-477.04C354.15,-471.37 351.72,-464.89 350.45,-458.68 348.85,-450.9 350.1,-442.59 352.44,-435.02"/>
<polygon fill="black" stroke="black" points="355.74,-436.2 355.99,-425.61 349.19,-433.73 355.74,-436.2"/>
<text text-anchor="middle" x="355.45" y="-447.48" font-family="Times,serif" font-size="14.00">b</text>
</g>
<!-- [&#39;q2&#39;, &#39;q3&#39;]&#45;&gt;[&#39;q2&#39;] -->
<g id="edge11" class="edge">
<title>[&#39;q2&#39;, &#39;q3&#39;]&#45;&gt;[&#39;q2&#39;]</title>
<path fill="none" stroke="black" d="M365.45,-425.85C365.45,-437.48 365.45,-453.1 365.45,-466.41"/>
<polygon fill="black" stroke="black" points="361.95,-466.47 365.45,-476.47 368.95,-466.47 361.95,-466.47"/>
<text text-anchor="middle" x="369.95" y="-447.48" font-family="Times,serif" font-size="14.00">a</text>
</g>
<!-- [&#39;q2&#39;, &#39;q3&#39;, &#39;q4&#39;] -->
<g id="node8" class="node">
<title>[&#39;q2&#39;, &#39;q3&#39;, &#39;q4&#39;]</title>
<ellipse fill="none" stroke="black" cx="365.45" cy="-255.38" rx="79.1" ry="79.1"/>
<ellipse fill="none" stroke="black" cx="365.45" cy="-255.38" rx="83.09" ry="83.09"/>
<text text-anchor="middle" x="365.45" y="-251.68" font-family="Times,serif" font-size="14.00">[&#39;q2&#39;, &#39;q3&#39;, &#39;q4&#39;]</text>
</g>
<!-- [&#39;q2&#39;, &#39;q3&#39;]&#45;&gt;[&#39;q2&#39;, &#39;q3&#39;, &#39;q4&#39;] -->
<g id="edge12" class="edge">
<title>[&#39;q2&#39;, &#39;q3&#39;]&#45;&gt;[&#39;q2&#39;, &#39;q3&#39;, &#39;q4&#39;]</title>
<path fill="none" stroke="black" d="M365.45,-389.44C365.45,-378.94 365.45,-364.61 365.45,-349.24"/>
<polygon fill="black" stroke="black" points="368.95,-349.01 365.45,-339.01 361.95,-349.01 368.95,-349.01"/>
<text text-anchor="middle" x="370.45" y="-360.48" font-family="Times,serif" font-size="14.00">b</text>
</g>
<!-- [&#39;q6&#39;]&#45;&gt;[&#39;q6&#39;, &#39;q7&#39;] -->
<g id="edge9" class="edge">
<title>[&#39;q6&#39;]&#45;&gt;[&#39;q6&#39;, &#39;q7&#39;]</title>
<path fill="none" stroke="black" d="M37.72,-836.99C43.44,-866.6 55.31,-928.03 62.2,-963.64"/>
<polygon fill="black" stroke="black" points="58.83,-964.65 64.16,-973.8 65.7,-963.32 58.83,-964.65"/>
<text text-anchor="middle" x="60.95" y="-924.15" font-family="Times,serif" font-size="14.00">a</text>
</g>
<!-- [&#39;q6&#39;]&#45;&gt;[&#39;q6&#39;] -->
<g id="edge10" class="edge">
<title>[&#39;q6&#39;]&#45;&gt;[&#39;q6&#39;]</title>
<path fill="none" stroke="black" d="M51.1,-834.86C68.04,-844.15 86.89,-838.89 86.89,-819.06 86.89,-802.95 74.45,-796.45 60.69,-799.57"/>
<polygon fill="black" stroke="black" points="59.17,-796.4 51.1,-803.26 61.69,-802.93 59.17,-796.4"/>
<text text-anchor="middle" x="91.89" y="-815.36" font-family="Times,serif" font-size="14.00">b</text>
</g>
<!-- [&#39;q4&#39;, &#39;q6&#39;] -->
<g id="node5" class="node">
<title>[&#39;q4&#39;, &#39;q6&#39;]</title>
<ellipse fill="none" stroke="black" cx="198.45" cy="-624.22" rx="56.59" ry="56.59"/>
<ellipse fill="none" stroke="black" cx="198.45" cy="-624.22" rx="60.59" ry="60.59"/>
<text text-anchor="middle" x="198.45" y="-620.52" font-family="Times,serif" font-size="14.00">[&#39;q4&#39;, &#39;q6&#39;]</text>
</g>
<!-- [&#39;q4&#39;, &#39;q6&#39;]&#45;&gt;[&#39;q4&#39;, &#39;q6&#39;] -->
<g id="edge22" class="edge">
<title>[&#39;q4&#39;, &#39;q6&#39;]&#45;&gt;[&#39;q4&#39;, &#39;q6&#39;]</title>
<path fill="none" stroke="black" d="M257.02,-639.68C268.68,-637.94 276.99,-632.79 276.99,-624.22 276.99,-618.33 273.06,-614.06 266.82,-611.39"/>
<polygon fill="black" stroke="black" points="267.59,-607.97 257.02,-608.76 265.77,-614.74 267.59,-607.97"/>
<text text-anchor="middle" x="281.99" y="-620.52" font-family="Times,serif" font-size="14.00">b</text>
</g>
<!-- [&#39;q4&#39;, &#39;q6&#39;]&#45;&gt;[&#39;q4&#39;, &#39;q6&#39;, &#39;q7&#39;] -->
<g id="edge21" class="edge">
<title>[&#39;q4&#39;, &#39;q6&#39;]&#45;&gt;[&#39;q4&#39;, &#39;q6&#39;, &#39;q7&#39;]</title>
<path fill="none" stroke="black" d="M198.45,-684.83C198.45,-697.78 198.45,-711.77 198.45,-725.65"/>
<polygon fill="black" stroke="black" points="194.95,-725.72 198.45,-735.72 201.95,-725.72 194.95,-725.72"/>
<text text-anchor="middle" x="202.95" y="-706.57" font-family="Times,serif" font-size="14.00">a</text>
</g>
<!-- [&#39;q1&#39;] -->
<g id="node6" class="node">
<title>[&#39;q1&#39;]</title>
<ellipse fill="none" stroke="black" cx="365.45" cy="-624.22" rx="34.4" ry="34.4"/>
<ellipse fill="none" stroke="black" cx="365.45" cy="-624.22" rx="38.39" ry="38.39"/>
<text text-anchor="middle" x="365.45" y="-620.52" font-family="Times,serif" font-size="14.00">[&#39;q1&#39;]</text>
</g>
<!-- [&#39;q1&#39;]&#45;&gt;[&#39;q2&#39;] -->
<g id="edge3" class="edge">
<title>[&#39;q1&#39;]&#45;&gt;[&#39;q2&#39;]</title>
<path fill="none" stroke="black" d="M365.45,-585.64C365.45,-565.59 365.45,-541.35 365.45,-523.09"/>
<polygon fill="black" stroke="black" points="368.95,-522.84 365.45,-512.84 361.95,-522.84 368.95,-522.84"/>
<text text-anchor="middle" x="369.95" y="-534.48" font-family="Times,serif" font-size="14.00">a</text>
</g>
<!-- [&#39;q0&#39;] -->
<g id="node11" class="node">
<title>[&#39;q0&#39;]</title>
<ellipse fill="aquamarine" stroke="aquamarine" cx="365.45" cy="-819.06" rx="34.4" ry="34.4"/>
<ellipse fill="none" stroke="aquamarine" cx="365.45" cy="-819.06" rx="38.39" ry="38.39"/>
<text text-anchor="middle" x="365.45" y="-815.36" font-family="Times,serif" font-size="14.00">[&#39;q0&#39;]</text>
</g>
<!-- [&#39;q1&#39;]&#45;&gt;[&#39;q0&#39;] -->
<g id="edge4" class="edge">
<title>[&#39;q1&#39;]&#45;&gt;[&#39;q0&#39;]</title>
<path fill="none" stroke="black" d="M365.45,-662.76C365.45,-693.4 365.45,-736.88 365.45,-770.04"/>
<polygon fill="black" stroke="black" points="361.95,-770.42 365.45,-780.42 368.95,-770.42 361.95,-770.42"/>
<text text-anchor="middle" x="370.45" y="-706.57" font-family="Times,serif" font-size="14.00">b</text>
</g>
<!-- [&#39;q4&#39;, &#39;q6&#39;, &#39;q7&#39;]&#45;&gt;[&#39;q4&#39;, &#39;q6&#39;] -->
<g id="edge18" class="edge">
<title>[&#39;q4&#39;, &#39;q6&#39;, &#39;q7&#39;]&#45;&gt;[&#39;q4&#39;, &#39;q6&#39;]</title>
<path fill="none" stroke="black" d="M182.28,-737.21C181.41,-725.66 181.31,-713.92 182.45,-702.77 182.76,-699.72 183.14,-696.61 183.57,-693.49"/>
<polygon fill="black" stroke="black" points="187.05,-693.87 185.11,-683.46 180.13,-692.81 187.05,-693.87"/>
<text text-anchor="middle" x="187.45" y="-706.57" font-family="Times,serif" font-size="14.00">b</text>
</g>
<!-- [&#39;q4&#39;, &#39;q6&#39;, &#39;q7&#39;]&#45;&gt;[&#39;q4&#39;, &#39;q6&#39;, &#39;q7&#39;] -->
<g id="edge17" class="edge">
<title>[&#39;q4&#39;, &#39;q6&#39;, &#39;q7&#39;]&#45;&gt;[&#39;q4&#39;, &#39;q6&#39;, &#39;q7&#39;]</title>
<path fill="none" stroke="black" d="M279.92,-837.33C291.76,-834.43 299.74,-828.34 299.74,-819.06 299.74,-812.53 295.79,-807.58 289.34,-804.21"/>
<polygon fill="black" stroke="black" points="290.51,-800.92 279.92,-800.79 288.12,-807.49 290.51,-800.92"/>
<text text-anchor="middle" x="304.24" y="-815.36" font-family="Times,serif" font-size="14.00">a</text>
</g>
<!-- [&#39;q2&#39;, &#39;q3&#39;, &#39;q4&#39;]&#45;&gt;[&#39;q2&#39;, &#39;q3&#39;, &#39;q4&#39;] -->
<g id="edge16" class="edge">
<title>[&#39;q2&#39;, &#39;q3&#39;, &#39;q4&#39;]&#45;&gt;[&#39;q2&#39;, &#39;q3&#39;, &#39;q4&#39;]</title>
<path fill="none" stroke="black" d="M446.92,-273.66C458.76,-270.76 466.74,-264.66 466.74,-255.38 466.74,-248.86 462.79,-243.91 456.34,-240.54"/>
<polygon fill="black" stroke="black" points="457.51,-237.24 446.92,-237.11 455.12,-243.82 457.51,-237.24"/>
<text text-anchor="middle" x="471.74" y="-251.68" font-family="Times,serif" font-size="14.00">b</text>
</g>
<!-- [&#39;q2&#39;, &#39;q4&#39;] -->
<g id="node9" class="node">
<title>[&#39;q2&#39;, &#39;q4&#39;]</title>
<ellipse fill="none" stroke="black" cx="365.45" cy="-60.54" rx="56.59" ry="56.59"/>
<ellipse fill="none" stroke="black" cx="365.45" cy="-60.54" rx="60.59" ry="60.59"/>
<text text-anchor="middle" x="365.45" y="-56.84" font-family="Times,serif" font-size="14.00">[&#39;q2&#39;, &#39;q4&#39;]</text>
</g>
<!-- [&#39;q2&#39;, &#39;q3&#39;, &#39;q4&#39;]&#45;&gt;[&#39;q2&#39;, &#39;q4&#39;] -->
<g id="edge15" class="edge">
<title>[&#39;q2&#39;, &#39;q3&#39;, &#39;q4&#39;]&#45;&gt;[&#39;q2&#39;, &#39;q4&#39;]</title>
<path fill="none" stroke="black" d="M350.27,-173.21C349.48,-161.77 349.39,-150.14 350.45,-139.09 350.74,-136.05 351.09,-132.95 351.5,-129.83"/>
<polygon fill="black" stroke="black" points="354.98,-130.2 352.94,-119.8 348.05,-129.2 354.98,-130.2"/>
<text text-anchor="middle" x="354.95" y="-142.89" font-family="Times,serif" font-size="14.00">a</text>
</g>
<!-- [&#39;q2&#39;, &#39;q4&#39;]&#45;&gt;[&#39;q2&#39;, &#39;q3&#39;, &#39;q4&#39;] -->
<g id="edge20" class="edge">
<title>[&#39;q2&#39;, &#39;q4&#39;]&#45;&gt;[&#39;q2&#39;, &#39;q3&#39;, &#39;q4&#39;]</title>
<path fill="none" stroke="black" d="M365.45,-121.16C365.45,-134.11 365.45,-148.1 365.45,-161.97"/>
<polygon fill="black" stroke="black" points="361.95,-162.04 365.45,-172.04 368.95,-162.04 361.95,-162.04"/>
<text text-anchor="middle" x="370.45" y="-142.89" font-family="Times,serif" font-size="14.00">b</text>
</g>
<!-- [&#39;q2&#39;, &#39;q4&#39;]&#45;&gt;[&#39;q2&#39;, &#39;q4&#39;] -->
<g id="edge19" class="edge">
<title>[&#39;q2&#39;, &#39;q4&#39;]&#45;&gt;[&#39;q2&#39;, &#39;q4&#39;]</title>
<path fill="none" stroke="black" d="M424.02,-76C435.68,-74.26 443.99,-69.11 443.99,-60.54 443.99,-54.66 440.06,-50.38 433.82,-47.72"/>
<polygon fill="black" stroke="black" points="434.59,-44.3 424.02,-45.09 432.77,-51.06 434.59,-44.3"/>
<text text-anchor="middle" x="448.49" y="-56.84" font-family="Times,serif" font-size="14.00">a</text>
</g>
<!-- [&#39;q5&#39;] -->
<g id="node10" class="node">
<title>[&#39;q5&#39;]</title>
<ellipse fill="none" stroke="black" cx="333.45" cy="-991.8" rx="34.4" ry="34.4"/>
<ellipse fill="none" stroke="black" cx="333.45" cy="-991.8" rx="38.39" ry="38.39"/>
<text text-anchor="middle" x="333.45" y="-988.1" font-family="Times,serif" font-size="14.00">[&#39;q5&#39;]</text>
</g>
<!-- [&#39;q5&#39;]&#45;&gt;[&#39;q6&#39;] -->
<g id="edge6" class="edge">
<title>[&#39;q5&#39;]&#45;&gt;[&#39;q6&#39;]</title>
<path fill="none" stroke="black" d="M295.81,-982.08C248.48,-969.85 166.17,-944.25 106.45,-902.35 84.14,-886.7 64.22,-862.74 51.02,-844.7"/>
<polygon fill="black" stroke="black" points="53.74,-842.5 45.09,-836.38 48.04,-846.56 53.74,-842.5"/>
<text text-anchor="middle" x="163.45" y="-924.15" font-family="Times,serif" font-size="14.00">b</text>
</g>
<!-- [&#39;q5&#39;]&#45;&gt;[&#39;q0&#39;] -->
<g id="edge5" class="edge">
<title>[&#39;q5&#39;]&#45;&gt;[&#39;q0&#39;]</title>
<path fill="none" stroke="black" d="M332,-953.34C332.12,-942.63 332.76,-930.98 334.45,-920.35 337.38,-901.84 342.95,-882.02 348.58,-864.93"/>
<polygon fill="black" stroke="black" points="351.98,-865.81 351.88,-855.21 345.35,-863.56 351.98,-865.81"/>
<text text-anchor="middle" x="338.95" y="-924.15" font-family="Times,serif" font-size="14.00">a</text>
</g>
<!-- [&#39;q0&#39;]&#45;&gt;[&#39;q1&#39;] -->
<g id="edge1" class="edge">
<title>[&#39;q0&#39;]&#45;&gt;[&#39;q1&#39;]</title>
<path fill="none" stroke="black" d="M356.46,-781.52C351.94,-758.89 347.91,-729.19 350.45,-702.77 351.41,-692.73 353.05,-682.07 354.91,-671.96"/>
<polygon fill="black" stroke="black" points="358.36,-672.57 356.82,-662.09 351.49,-671.24 358.36,-672.57"/>
<text text-anchor="middle" x="354.95" y="-706.57" font-family="Times,serif" font-size="14.00">a</text>
</g>
<!-- [&#39;q0&#39;]&#45;&gt;[&#39;q5&#39;] -->
<g id="edge2" class="edge">
<title>[&#39;q0&#39;]&#45;&gt;[&#39;q5&#39;]</title>
<path fill="none" stroke="black" d="M358.52,-857.03C353.76,-882.41 347.41,-916.31 342.29,-943.63"/>
<polygon fill="black" stroke="black" points="338.79,-943.28 340.39,-953.75 345.67,-944.57 338.79,-943.28"/>
<text text-anchor="middle" x="351.45" y="-924.15" font-family="Times,serif" font-size="14.00">b</text>
</g>
</g>
</svg>
