<?xml version="1.0" encoding="UTF-8" standalone="no"?>
<!DOCTYPE svg PUBLIC "-//W3C//DTD SVG 1.1//EN"
 "http://www.w3.org/Graphics/SVG/1.1/DTD/svg11.dtd">
<!-- Generated by graphviz version 2.43.0 (0)
 -->
<!-- Title: %3 Pages: 1 -->
<svg width="295pt" height="732pt"
 viewBox="0.00 0.00 294.74 732.27" xmlns="http://www.w3.org/2000/svg" xmlns:xlink="http://www.w3.org/1999/xlink">
<g id="graph0" class="graph" transform="scale(1 1) rotate(0) translate(4 728.27)">
<title>%3</title>
<polygon fill="white" stroke="transparent" points="-4,4 -4,-728.27 290.74,-728.27 290.74,4 -4,4"/>
<!-- [&#39;q6&#39;, &#39;q7&#39;] -->
<g id="node1" class="node">
<title>[&#39;q6&#39;, &#39;q7&#39;]</title>
<ellipse fill="none" stroke="black" cx="100.29" cy="-685.82" rx="56.59" ry="18"/>
<text text-anchor="middle" x="100.29" y="-682.12" font-family="Times,serif" font-size="14.00">[&#39;q6&#39;, &#39;q7&#39;]</text>
</g>
<!-- [&#39;q6&#39;] -->
<g id="node4" class="node">
<title>[&#39;q6&#39;]</title>
<ellipse fill="none" stroke="black" cx="129.29" cy="-557.93" rx="34.39" ry="18"/>
<text text-anchor="middle" x="129.29" y="-554.23" font-family="Times,serif" font-size="14.00">[&#39;q6&#39;]</text>
</g>
<!-- [&#39;q6&#39;, &#39;q7&#39;]&#45;&gt;[&#39;q6&#39;] -->
<g id="edge14" class="edge">
<title>[&#39;q6&#39;, &#39;q7&#39;]&#45;&gt;[&#39;q6&#39;]</title>
<path fill="none" stroke="black" d="M104.2,-667.84C109.05,-646.82 117.36,-610.75 123.08,-585.92"/>
<polygon fill="black" stroke="black" points="126.52,-586.57 125.35,-576.04 119.7,-585 126.52,-586.57"/>
<text text-anchor="middle" x="121.29" y="-618.17" font-family="Times,serif" font-size="14.00">b</text>
</g>
<!-- [&#39;q2&#39;, &#39;q3&#39;, &#39;q4&#39;] -->
<g id="node5" class="node">
<title>[&#39;q2&#39;, &#39;q3&#39;, &#39;q4&#39;]</title>
<ellipse fill="none" stroke="black" cx="83.29" cy="-83.29" rx="79.1" ry="79.1"/>
<ellipse fill="none" stroke="black" cx="83.29" cy="-83.29" rx="83.09" ry="83.09"/>
<text text-anchor="middle" x="83.29" y="-79.59" font-family="Times,serif" font-size="14.00">[&#39;q2&#39;, &#39;q3&#39;, &#39;q4&#39;]</text>
</g>
<!-- [&#39;q6&#39;, &#39;q7&#39;]&#45;&gt;[&#39;q2&#39;, &#39;q3&#39;, &#39;q4&#39;] -->
<g id="edge13" class="edge">
<title>[&#39;q6&#39;, &#39;q7&#39;]&#45;&gt;[&#39;q2&#39;, &#39;q3&#39;, &#39;q4&#39;]</title>
<path fill="none" stroke="black" d="M92.8,-667.68C83.07,-643.79 67.29,-598.92 67.29,-558.93 67.29,-558.93 67.29,-558.93 67.29,-234.59 67.29,-215.59 68.57,-195.32 70.41,-176.02"/>
<polygon fill="black" stroke="black" points="73.89,-176.33 71.41,-166.03 66.93,-175.63 73.89,-176.33"/>
<text text-anchor="middle" x="71.79" y="-362.39" font-family="Times,serif" font-size="14.00">a</text>
</g>
<!-- [&#39;q2&#39;] -->
<g id="node2" class="node">
<title>[&#39;q2&#39;]</title>
<ellipse fill="none" stroke="black" cx="192.29" cy="-322.59" rx="34.39" ry="18"/>
<text text-anchor="middle" x="192.29" y="-318.89" font-family="Times,serif" font-size="14.00">[&#39;q2&#39;]</text>
</g>
<!-- [&#39;q2&#39;]&#45;&gt;[&#39;q2&#39;] -->
<g id="edge7" class="edge">
<title>[&#39;q2&#39;]&#45;&gt;[&#39;q2&#39;]</title>
<path fill="none" stroke="black" d="M223.52,-330.44C235.16,-330.7 244.74,-328.08 244.74,-322.59 244.74,-318.81 240.21,-316.39 233.6,-315.33"/>
<polygon fill="black" stroke="black" points="233.71,-311.83 223.52,-314.73 233.3,-318.82 233.71,-311.83"/>
<text text-anchor="middle" x="249.24" y="-318.89" font-family="Times,serif" font-size="14.00">a</text>
</g>
<!-- [&#39;q2&#39;, &#39;q3&#39;] -->
<g id="node3" class="node">
<title>[&#39;q2&#39;, &#39;q3&#39;]</title>
<ellipse fill="none" stroke="black" cx="160.29" cy="-235.59" rx="56.59" ry="18"/>
<text text-anchor="middle" x="160.29" y="-231.89" font-family="Times,serif" font-size="14.00">[&#39;q2&#39;, &#39;q3&#39;]</text>
</g>
<!-- [&#39;q2&#39;]&#45;&gt;[&#39;q2&#39;, &#39;q3&#39;] -->
<g id="edge8" class="edge">
<title>[&#39;q2&#39;]&#45;&gt;[&#39;q2&#39;, &#39;q3&#39;]</title>
<path fill="none" stroke="black" d="M185.97,-304.79C181.49,-292.88 175.38,-276.65 170.24,-263.01"/>
<polygon fill="black" stroke="black" points="173.51,-261.76 166.71,-253.64 166.96,-264.23 173.51,-261.76"/>
<text text-anchor="middle" x="182.29" y="-275.39" font-family="Times,serif" font-size="14.00">b</text>
</g>
<!-- [&#39;q2&#39;, &#39;q3&#39;]&#45;&gt;[&#39;q2&#39;] -->
<g id="edge11" class="edge">
<title>[&#39;q2&#39;, &#39;q3&#39;]&#45;&gt;[&#39;q2&#39;]</title>
<path fill="none" stroke="black" d="M157.76,-253.82C157,-263.73 157.25,-276.23 161.29,-286.59 163,-290.96 165.52,-295.14 168.39,-298.99"/>
<polygon fill="black" stroke="black" points="165.93,-301.51 175.08,-306.86 171.27,-296.97 165.93,-301.51"/>
<text text-anchor="middle" x="165.79" y="-275.39" font-family="Times,serif" font-size="14.00">a</text>
</g>
<!-- [&#39;q2&#39;, &#39;q3&#39;]&#45;&gt;[&#39;q2&#39;, &#39;q3&#39;, &#39;q4&#39;] -->
<g id="edge12" class="edge">
<title>[&#39;q2&#39;, &#39;q3&#39;]&#45;&gt;[&#39;q2&#39;, &#39;q3&#39;, &#39;q4&#39;]</title>
<path fill="none" stroke="black" d="M151.61,-217.64C145.03,-204.79 135.45,-186.09 125.53,-166.74"/>
<polygon fill="black" stroke="black" points="128.64,-165.13 120.97,-157.83 122.41,-168.32 128.64,-165.13"/>
<text text-anchor="middle" x="146.29" y="-188.39" font-family="Times,serif" font-size="14.00">b</text>
</g>
<!-- [&#39;q6&#39;]&#45;&gt;[&#39;q6&#39;, &#39;q7&#39;] -->
<g id="edge9" class="edge">
<title>[&#39;q6&#39;]&#45;&gt;[&#39;q6&#39;, &#39;q7&#39;]</title>
<path fill="none" stroke="black" d="M118.63,-575.14C112.25,-585.81 104.74,-600.34 101.29,-614.37 97.87,-628.29 97.37,-644.23 97.84,-657.42"/>
<polygon fill="black" stroke="black" points="94.36,-657.96 98.41,-667.75 101.35,-657.57 94.36,-657.96"/>
<text text-anchor="middle" x="105.79" y="-618.17" font-family="Times,serif" font-size="14.00">a</text>
</g>
<!-- [&#39;q6&#39;]&#45;&gt;[&#39;q6&#39;] -->
<g id="edge10" class="edge">
<title>[&#39;q6&#39;]&#45;&gt;[&#39;q6&#39;]</title>
<path fill="none" stroke="black" d="M156.28,-569.21C169.74,-570.77 181.74,-567.01 181.74,-557.93 181.74,-551.26 175.27,-547.46 166.5,-546.53"/>
<polygon fill="black" stroke="black" points="166.24,-543.03 156.28,-546.65 166.32,-550.03 166.24,-543.03"/>
<text text-anchor="middle" x="186.74" y="-554.23" font-family="Times,serif" font-size="14.00">b</text>
</g>
<!-- [&#39;q2&#39;, &#39;q3&#39;, &#39;q4&#39;]&#45;&gt;[&#39;q2&#39;, &#39;q3&#39;, &#39;q4&#39;] -->
<g id="edge15" class="edge">
<title>[&#39;q2&#39;, &#39;q3&#39;, &#39;q4&#39;]&#45;&gt;[&#39;q2&#39;, &#39;q3&#39;, &#39;q4&#39;]</title>
<path fill="none" stroke="black" d="M164.76,-101.57C176.61,-98.67 184.59,-92.57 184.59,-83.29 184.59,-76.77 180.64,-71.82 174.18,-68.45"/>
<polygon fill="black" stroke="black" points="175.36,-65.15 164.76,-65.02 172.96,-71.73 175.36,-65.15"/>
<text text-anchor="middle" x="198.09" y="-79.59" font-family="Times,serif" font-size="14.00">a, b</text>
</g>
<!-- [&#39;q1&#39;] -->
<g id="node6" class="node">
<title>[&#39;q1&#39;]</title>
<ellipse fill="none" stroke="black" cx="215.29" cy="-430.03" rx="34.4" ry="34.4"/>
<ellipse fill="none" stroke="black" cx="215.29" cy="-430.03" rx="38.39" ry="38.39"/>
<text text-anchor="middle" x="215.29" y="-426.33" font-family="Times,serif" font-size="14.00">[&#39;q1&#39;]</text>
</g>
<!-- [&#39;q1&#39;]&#45;&gt;[&#39;q2&#39;] -->
<g id="edge3" class="edge">
<title>[&#39;q1&#39;]&#45;&gt;[&#39;q2&#39;]</title>
<path fill="none" stroke="black" d="M207.25,-392.15C204.25,-378.42 200.91,-363.1 198.15,-350.44"/>
<polygon fill="black" stroke="black" points="201.54,-349.54 195.99,-340.51 194.7,-351.03 201.54,-349.54"/>
<text text-anchor="middle" x="206.79" y="-362.39" font-family="Times,serif" font-size="14.00">a</text>
</g>
<!-- [&#39;q0&#39;] -->
<g id="node8" class="node">
<title>[&#39;q0&#39;]</title>
<ellipse fill="aquamarine" stroke="aquamarine" cx="248.29" cy="-557.93" rx="34.4" ry="34.4"/>
<ellipse fill="none" stroke="aquamarine" cx="248.29" cy="-557.93" rx="38.39" ry="38.39"/>
<text text-anchor="middle" x="248.29" y="-554.23" font-family="Times,serif" font-size="14.00">[&#39;q0&#39;]</text>
</g>
<!-- [&#39;q1&#39;]&#45;&gt;[&#39;q0&#39;] -->
<g id="edge4" class="edge">
<title>[&#39;q1&#39;]&#45;&gt;[&#39;q0&#39;]</title>
<path fill="none" stroke="black" d="M212.32,-468.46C212.4,-479.27 213.4,-490.98 216.29,-501.48 217.7,-506.57 219.68,-511.69 221.98,-516.64"/>
<polygon fill="black" stroke="black" points="219.06,-518.6 226.73,-525.91 225.29,-515.41 219.06,-518.6"/>
<text text-anchor="middle" x="221.29" y="-490.28" font-family="Times,serif" font-size="14.00">b</text>
</g>
<!-- [&#39;q5&#39;] -->
<g id="node7" class="node">
<title>[&#39;q5&#39;]</title>
<ellipse fill="none" stroke="black" cx="216.29" cy="-685.82" rx="34.4" ry="34.4"/>
<ellipse fill="none" stroke="black" cx="216.29" cy="-685.82" rx="38.39" ry="38.39"/>
<text text-anchor="middle" x="216.29" y="-682.12" font-family="Times,serif" font-size="14.00">[&#39;q5&#39;]</text>
</g>
<!-- [&#39;q5&#39;]&#45;&gt;[&#39;q6&#39;] -->
<g id="edge6" class="edge">
<title>[&#39;q5&#39;]&#45;&gt;[&#39;q6&#39;]</title>
<path fill="none" stroke="black" d="M194.79,-653.7C179.8,-632.01 160.08,-603.47 146.21,-583.4"/>
<polygon fill="black" stroke="black" points="149.03,-581.33 140.47,-575.1 143.27,-585.31 149.03,-581.33"/>
<text text-anchor="middle" x="180.29" y="-618.17" font-family="Times,serif" font-size="14.00">b</text>
</g>
<!-- [&#39;q5&#39;]&#45;&gt;[&#39;q0&#39;] -->
<g id="edge5" class="edge">
<title>[&#39;q5&#39;]&#45;&gt;[&#39;q0&#39;]</title>
<path fill="none" stroke="black" d="M214.13,-647.42C214.37,-636.61 215.47,-624.89 218.29,-614.37 219.61,-609.48 221.43,-604.54 223.53,-599.73"/>
<polygon fill="black" stroke="black" points="226.69,-601.23 227.85,-590.7 220.38,-598.21 226.69,-601.23"/>
<text text-anchor="middle" x="222.79" y="-618.17" font-family="Times,serif" font-size="14.00">a</text>
</g>
<!-- [&#39;q0&#39;]&#45;&gt;[&#39;q1&#39;] -->
<g id="edge1" class="edge">
<title>[&#39;q0&#39;]&#45;&gt;[&#39;q1&#39;]</title>
<path fill="none" stroke="black" d="M238.75,-520.51C235.22,-507.07 231.18,-491.66 227.46,-477.45"/>
<polygon fill="black" stroke="black" points="230.74,-476.15 224.82,-467.36 223.97,-477.93 230.74,-476.15"/>
<text text-anchor="middle" x="236.79" y="-490.28" font-family="Times,serif" font-size="14.00">a</text>
</g>
<!-- [&#39;q0&#39;]&#45;&gt;[&#39;q5&#39;] -->
<g id="edge2" class="edge">
<title>[&#39;q0&#39;]&#45;&gt;[&#39;q5&#39;]</title>
<path fill="none" stroke="black" d="M239.06,-595.26C235.64,-608.69 231.73,-624.11 228.11,-638.32"/>
<polygon fill="black" stroke="black" points="224.62,-637.85 225.55,-648.41 231.4,-639.58 224.62,-637.85"/>
<text text-anchor="middle" x="237.29" y="-618.17" font-family="Times,serif" font-size="14.00">b</text>
</g>
</g>
</svg>
