<?xml version="1.0" encoding="UTF-8" standalone="no"?>
<!DOCTYPE svg PUBLIC "-//W3C//DTD SVG 1.1//EN"
 "http://www.w3.org/Graphics/SVG/1.1/DTD/svg11.dtd">
<!-- Generated by graphviz version 2.43.0 (0)
 -->
<!-- Title: %3 Pages: 1 -->
<svg width="270pt" height="476pt"
 viewBox="0.00 0.00 269.74 476.48" xmlns="http://www.w3.org/2000/svg" xmlns:xlink="http://www.w3.org/1999/xlink">
<g id="graph0" class="graph" transform="scale(1 1) rotate(0) translate(4 472.48)">
<title>%3</title>
<polygon fill="white" stroke="transparent" points="-4,4 -4,-472.48 265.74,-472.48 265.74,4 -4,4"/>
<!-- [] -->
<g id="node1" class="node">
<title>[]</title>
<ellipse fill="none" stroke="black" cx="43.45" cy="-18" rx="27" ry="18"/>
<text text-anchor="middle" x="43.45" y="-14.3" font-family="Times,serif" font-size="14.00">[]</text>
</g>
<!-- []&#45;&gt;[] -->
<g id="edge9" class="edge">
<title>[]&#45;&gt;[]</title>
<path fill="none" stroke="black" d="M67.98,-25.75C78.95,-26.49 88.45,-23.91 88.45,-18 88.45,-14.03 84.16,-11.56 78.02,-10.59"/>
<polygon fill="black" stroke="black" points="78.09,-7.09 67.98,-10.25 77.85,-14.09 78.09,-7.09"/>
<text text-anchor="middle" x="101.95" y="-14.3" font-family="Times,serif" font-size="14.00">a, b</text>
</g>
<!-- [&#39;q1&#39;] -->
<g id="node2" class="node">
<title>[&#39;q1&#39;]</title>
<ellipse fill="none" stroke="black" cx="91.45" cy="-232.89" rx="34.39" ry="18"/>
<text text-anchor="middle" x="91.45" y="-229.19" font-family="Times,serif" font-size="14.00">[&#39;q1&#39;]</text>
</g>
<!-- [&#39;q2&#39;] -->
<g id="node4" class="node">
<title>[&#39;q2&#39;]</title>
<ellipse fill="none" stroke="black" cx="38.45" cy="-385.19" rx="34.4" ry="34.4"/>
<ellipse fill="none" stroke="black" cx="38.45" cy="-385.19" rx="38.39" ry="38.39"/>
<text text-anchor="middle" x="38.45" y="-381.49" font-family="Times,serif" font-size="14.00">[&#39;q2&#39;]</text>
</g>
<!-- [&#39;q1&#39;]&#45;&gt;[&#39;q2&#39;] -->
<g id="edge4" class="edge">
<title>[&#39;q1&#39;]&#45;&gt;[&#39;q2&#39;]</title>
<path fill="none" stroke="black" d="M85.51,-250.74C78.04,-271.9 64.94,-309.06 54.45,-338.8"/>
<polygon fill="black" stroke="black" points="51.03,-337.97 51.01,-348.57 57.63,-340.3 51.03,-337.97"/>
<text text-anchor="middle" x="92.95" y="-272.69" font-family="Times,serif" font-size="14.00">a, b</text>
</g>
<!-- [&#39;q3&#39;] -->
<g id="node3" class="node">
<title>[&#39;q3&#39;]</title>
<ellipse fill="none" stroke="black" cx="178.45" cy="-232.89" rx="34.39" ry="18"/>
<text text-anchor="middle" x="178.45" y="-229.19" font-family="Times,serif" font-size="14.00">[&#39;q3&#39;]</text>
</g>
<!-- [&#39;q4&#39;] -->
<g id="node5" class="node">
<title>[&#39;q4&#39;]</title>
<ellipse fill="none" stroke="black" cx="146.45" cy="-125.45" rx="34.4" ry="34.4"/>
<ellipse fill="none" stroke="black" cx="146.45" cy="-125.45" rx="38.39" ry="38.39"/>
<text text-anchor="middle" x="146.45" y="-121.75" font-family="Times,serif" font-size="14.00">[&#39;q4&#39;]</text>
</g>
<!-- [&#39;q3&#39;]&#45;&gt;[&#39;q4&#39;] -->
<g id="edge3" class="edge">
<title>[&#39;q3&#39;]&#45;&gt;[&#39;q4&#39;]</title>
<path fill="none" stroke="black" d="M173.31,-214.95C169.8,-203.39 164.97,-187.49 160.38,-172.36"/>
<polygon fill="black" stroke="black" points="163.66,-171.12 157.41,-162.57 156.96,-173.16 163.66,-171.12"/>
<text text-anchor="middle" x="179.95" y="-185.69" font-family="Times,serif" font-size="14.00">a, b</text>
</g>
<!-- [&#39;q2&#39;]&#45;&gt;[] -->
<g id="edge7" class="edge">
<title>[&#39;q2&#39;]&#45;&gt;[]</title>
<path fill="none" stroke="black" d="M38.96,-346.48C39.97,-272.75 42.19,-111.05 43.07,-46.45"/>
<polygon fill="black" stroke="black" points="46.57,-46.3 43.21,-36.25 39.57,-46.2 46.57,-46.3"/>
<text text-anchor="middle" x="45.95" y="-185.69" font-family="Times,serif" font-size="14.00">a</text>
</g>
<!-- [&#39;q2&#39;]&#45;&gt;[&#39;q1&#39;] -->
<g id="edge8" class="edge">
<title>[&#39;q2&#39;]&#45;&gt;[&#39;q1&#39;]</title>
<path fill="none" stroke="black" d="M40.53,-346.76C43.02,-323.39 48.5,-293.22 60.45,-268.89 62.52,-264.68 65.23,-260.59 68.2,-256.77"/>
<polygon fill="black" stroke="black" points="71.07,-258.8 74.93,-248.93 65.76,-254.24 71.07,-258.8"/>
<text text-anchor="middle" x="65.45" y="-272.69" font-family="Times,serif" font-size="14.00">b</text>
</g>
<!-- [&#39;q4&#39;]&#45;&gt;[] -->
<g id="edge6" class="edge">
<title>[&#39;q4&#39;]&#45;&gt;[]</title>
<path fill="none" stroke="black" d="M119.92,-97.29C102.81,-79.78 80.85,-57.29 64.86,-40.92"/>
<polygon fill="black" stroke="black" points="67.02,-38.13 57.53,-33.42 62.01,-43.02 67.02,-38.13"/>
<text text-anchor="middle" x="97.45" y="-57.8" font-family="Times,serif" font-size="14.00">b</text>
</g>
<!-- [&#39;q4&#39;]&#45;&gt;[&#39;q3&#39;] -->
<g id="edge5" class="edge">
<title>[&#39;q4&#39;]&#45;&gt;[&#39;q3&#39;]</title>
<path fill="none" stroke="black" d="M143.61,-163.92C143.95,-174.85 145.49,-186.61 149.45,-196.89 151.08,-201.15 153.46,-205.27 156.16,-209.1"/>
<polygon fill="black" stroke="black" points="153.45,-211.31 162.42,-216.95 158.92,-206.95 153.45,-211.31"/>
<text text-anchor="middle" x="153.95" y="-185.69" font-family="Times,serif" font-size="14.00">a</text>
</g>
<!-- [&#39;q0&#39;, &#39;q2&#39;, &#39;q4&#39;] -->
<g id="node6" class="node">
<title>[&#39;q0&#39;, &#39;q2&#39;, &#39;q4&#39;]</title>
<ellipse fill="aquamarine" stroke="aquamarine" cx="178.45" cy="-385.19" rx="79.1" ry="79.1"/>
<ellipse fill="none" stroke="aquamarine" cx="178.45" cy="-385.19" rx="83.09" ry="83.09"/>
<text text-anchor="middle" x="178.45" y="-381.49" font-family="Times,serif" font-size="14.00">[&#39;q0&#39;, &#39;q2&#39;, &#39;q4&#39;]</text>
</g>
<!-- [&#39;q0&#39;, &#39;q2&#39;, &#39;q4&#39;]&#45;&gt;[&#39;q1&#39;] -->
<g id="edge2" class="edge">
<title>[&#39;q0&#39;, &#39;q2&#39;, &#39;q4&#39;]&#45;&gt;[&#39;q1&#39;]</title>
<path fill="none" stroke="black" d="M136.99,-312.56C125.93,-293.46 114.69,-274.05 106.15,-259.3"/>
<polygon fill="black" stroke="black" points="108.99,-257.22 100.95,-250.32 102.94,-260.73 108.99,-257.22"/>
<text text-anchor="middle" x="124.45" y="-272.69" font-family="Times,serif" font-size="14.00">b</text>
</g>
<!-- [&#39;q0&#39;, &#39;q2&#39;, &#39;q4&#39;]&#45;&gt;[&#39;q3&#39;] -->
<g id="edge1" class="edge">
<title>[&#39;q0&#39;, &#39;q2&#39;, &#39;q4&#39;]&#45;&gt;[&#39;q3&#39;]</title>
<path fill="none" stroke="black" d="M178.45,-301.57C178.45,-286.99 178.45,-272.79 178.45,-261.2"/>
<polygon fill="black" stroke="black" points="181.95,-260.95 178.45,-250.95 174.95,-260.95 181.95,-260.95"/>
<text text-anchor="middle" x="182.95" y="-272.69" font-family="Times,serif" font-size="14.00">a</text>
</g>
</g>
</svg>
