<?xml version="1.0" encoding="UTF-8" standalone="no"?>
<!DOCTYPE svg PUBLIC "-//W3C//DTD SVG 1.1//EN"
 "http://www.w3.org/Graphics/SVG/1.1/DTD/svg11.dtd">
<!-- Generated by graphviz version 2.43.0 (0)
 -->
<!-- Title: %3 Pages: 1 -->
<svg width="103pt" height="332pt"
 viewBox="0.00 0.00 102.75 331.99" xmlns="http://www.w3.org/2000/svg" xmlns:xlink="http://www.w3.org/1999/xlink">
<g id="graph0" class="graph" transform="scale(1 1) rotate(0) translate(4 327.99)">
<title>%3</title>
<polygon fill="white" stroke="transparent" points="-4,4 -4,-327.99 98.75,-327.99 98.75,4 -4,4"/>
<!-- q1 -->
<g id="node1" class="node">
<title>q1</title>
<ellipse fill="none" stroke="black" cx="27" cy="-209.5" rx="27" ry="18"/>
<text text-anchor="middle" x="27" y="-205.8" font-family="Times,serif" font-size="14.00">q1</text>
</g>
<!-- q2 -->
<g id="node2" class="node">
<title>q2</title>
<ellipse fill="none" stroke="black" cx="27" cy="-122.5" rx="27" ry="18"/>
<text text-anchor="middle" x="27" y="-118.8" font-family="Times,serif" font-size="14.00">q2</text>
</g>
<!-- q1&#45;&gt;q2 -->
<g id="edge3" class="edge">
<title>q1&#45;&gt;q2</title>
<path fill="none" stroke="black" d="M27,-191.29C27,-179.66 27,-164.04 27,-150.73"/>
<polygon fill="black" stroke="black" points="30.5,-150.67 27,-140.67 23.5,-150.67 30.5,-150.67"/>
<text text-anchor="middle" x="40.5" y="-162.3" font-family="Times,serif" font-size="14.00">a, b</text>
</g>
<!-- q3 -->
<g id="node3" class="node">
<title>q3</title>
<ellipse fill="none" stroke="black" cx="27" cy="-26.75" rx="22.96" ry="22.96"/>
<ellipse fill="none" stroke="black" cx="27" cy="-26.75" rx="27" ry="27"/>
<text text-anchor="middle" x="27" y="-23.05" font-family="Times,serif" font-size="14.00">q3</text>
</g>
<!-- q2&#45;&gt;q3 -->
<g id="edge4" class="edge">
<title>q2&#45;&gt;q3</title>
<path fill="none" stroke="black" d="M27,-104.3C27,-93.01 27,-77.82 27,-63.95"/>
<polygon fill="black" stroke="black" points="30.5,-63.68 27,-53.68 23.5,-63.68 30.5,-63.68"/>
<text text-anchor="middle" x="40.5" y="-75.3" font-family="Times,serif" font-size="14.00">a, b</text>
</g>
<!-- q0 -->
<g id="node4" class="node">
<title>q0</title>
<ellipse fill="aquamarine" stroke="aquamarine" cx="27" cy="-301.24" rx="23" ry="23"/>
<text text-anchor="middle" x="27" y="-297.54" font-family="Times,serif" font-size="14.00">q0</text>
</g>
<!-- q0&#45;&gt;q1 -->
<g id="edge2" class="edge">
<title>q0&#45;&gt;q1</title>
<path fill="none" stroke="black" d="M27,-278.06C27,-265.89 27,-250.71 27,-237.82"/>
<polygon fill="black" stroke="black" points="30.5,-237.64 27,-227.64 23.5,-237.64 30.5,-237.64"/>
<text text-anchor="middle" x="32" y="-249.3" font-family="Times,serif" font-size="14.00">b</text>
</g>
<!-- q0&#45;&gt;q0 -->
<g id="edge1" class="edge">
<title>q0&#45;&gt;q0</title>
<path fill="none" stroke="black" d="M48.38,-310.02C58.67,-311.11 67.75,-308.18 67.75,-301.24 67.75,-296.8 64.02,-294 58.64,-292.85"/>
<polygon fill="black" stroke="black" points="58.51,-289.34 48.38,-292.46 58.24,-296.34 58.51,-289.34"/>
<text text-anchor="middle" x="81.25" y="-297.54" font-family="Times,serif" font-size="14.00">a, b</text>
</g>
</g>
</svg>
