<?xml version="1.0" encoding="UTF-8" standalone="no"?>
<!DOCTYPE svg PUBLIC "-//W3C//DTD SVG 1.1//EN"
 "http://www.w3.org/Graphics/SVG/1.1/DTD/svg11.dtd">
<!-- Generated by graphviz version 2.43.0 (0)
 -->
<!-- Title: %3 Pages: 1 -->
<svg width="270pt" height="476pt"
 viewBox="0.00 0.00 269.74 476.48" xmlns="http://www.w3.org/2000/svg" xmlns:xlink="http://www.w3.org/1999/xlink">
<g id="graph0" class="graph" transform="scale(1 1) rotate(0) translate(4 472.48)">
<title>%3</title>
<polygon fill="white" stroke="transparent" points="-4,4 -4,-472.48 265.74,-472.48 265.74,4 -4,4"/>
<!-- [&#39;q1&#39;] -->
<g id="node1" class="node">
<title>[&#39;q1&#39;]</title>
<ellipse fill="none" stroke="black" cx="178.45" cy="-232.89" rx="34.39" ry="18"/>
<text text-anchor="middle" x="178.45" y="-229.19" font-family="Times,serif" font-size="14.00">[&#39;q1&#39;]</text>
</g>
<!-- [&#39;q2&#39;] -->
<g id="node5" class="node">
<title>[&#39;q2&#39;]</title>
<ellipse fill="none" stroke="black" cx="145.45" cy="-125.45" rx="34.4" ry="34.4"/>
<ellipse fill="none" stroke="black" cx="145.45" cy="-125.45" rx="38.39" ry="38.39"/>
<text text-anchor="middle" x="145.45" y="-121.75" font-family="Times,serif" font-size="14.00">[&#39;q2&#39;]</text>
</g>
<!-- [&#39;q1&#39;]&#45;&gt;[&#39;q2&#39;] -->
<g id="edge4" class="edge">
<title>[&#39;q1&#39;]&#45;&gt;[&#39;q2&#39;]</title>
<path fill="none" stroke="black" d="M173.14,-214.95C169.53,-203.39 164.55,-187.49 159.81,-172.36"/>
<polygon fill="black" stroke="black" points="163.08,-171.07 156.75,-162.57 156.4,-173.16 163.08,-171.07"/>
<text text-anchor="middle" x="180.95" y="-185.69" font-family="Times,serif" font-size="14.00">a, b</text>
</g>
<!-- [&#39;q3&#39;] -->
<g id="node2" class="node">
<title>[&#39;q3&#39;]</title>
<ellipse fill="none" stroke="black" cx="91.45" cy="-232.89" rx="34.39" ry="18"/>
<text text-anchor="middle" x="91.45" y="-229.19" font-family="Times,serif" font-size="14.00">[&#39;q3&#39;]</text>
</g>
<!-- [&#39;q4&#39;] -->
<g id="node4" class="node">
<title>[&#39;q4&#39;]</title>
<ellipse fill="none" stroke="black" cx="38.45" cy="-385.19" rx="34.4" ry="34.4"/>
<ellipse fill="none" stroke="black" cx="38.45" cy="-385.19" rx="38.39" ry="38.39"/>
<text text-anchor="middle" x="38.45" y="-381.49" font-family="Times,serif" font-size="14.00">[&#39;q4&#39;]</text>
</g>
<!-- [&#39;q3&#39;]&#45;&gt;[&#39;q4&#39;] -->
<g id="edge3" class="edge">
<title>[&#39;q3&#39;]&#45;&gt;[&#39;q4&#39;]</title>
<path fill="none" stroke="black" d="M85.51,-250.74C78.04,-271.9 64.94,-309.06 54.45,-338.8"/>
<polygon fill="black" stroke="black" points="51.03,-337.97 51.01,-348.57 57.63,-340.3 51.03,-337.97"/>
<text text-anchor="middle" x="92.95" y="-272.69" font-family="Times,serif" font-size="14.00">a, b</text>
</g>
<!-- [] -->
<g id="node3" class="node">
<title>[]</title>
<ellipse fill="none" stroke="black" cx="44.45" cy="-18" rx="27" ry="18"/>
<text text-anchor="middle" x="44.45" y="-14.3" font-family="Times,serif" font-size="14.00">[]</text>
</g>
<!-- []&#45;&gt;[] -->
<g id="edge9" class="edge">
<title>[]&#45;&gt;[]</title>
<path fill="none" stroke="black" d="M68.98,-25.75C79.95,-26.49 89.45,-23.91 89.45,-18 89.45,-14.03 85.16,-11.56 79.02,-10.59"/>
<polygon fill="black" stroke="black" points="79.09,-7.09 68.98,-10.25 78.85,-14.09 79.09,-7.09"/>
<text text-anchor="middle" x="102.95" y="-14.3" font-family="Times,serif" font-size="14.00">a, b</text>
</g>
<!-- [&#39;q4&#39;]&#45;&gt;[&#39;q3&#39;] -->
<g id="edge5" class="edge">
<title>[&#39;q4&#39;]&#45;&gt;[&#39;q3&#39;]</title>
<path fill="none" stroke="black" d="M41.61,-346.62C44.68,-323.33 50.7,-293.3 62.45,-268.89 64.43,-264.78 66.99,-260.74 69.77,-256.95"/>
<polygon fill="black" stroke="black" points="72.53,-259.11 76.08,-249.12 67.08,-254.72 72.53,-259.11"/>
<text text-anchor="middle" x="66.95" y="-272.69" font-family="Times,serif" font-size="14.00">a</text>
</g>
<!-- [&#39;q4&#39;]&#45;&gt;[] -->
<g id="edge6" class="edge">
<title>[&#39;q4&#39;]&#45;&gt;[]</title>
<path fill="none" stroke="black" d="M39.07,-346.48C40.28,-272.75 42.93,-111.05 44,-46.45"/>
<polygon fill="black" stroke="black" points="47.5,-46.31 44.16,-36.25 40.5,-46.19 47.5,-46.31"/>
<text text-anchor="middle" x="47.45" y="-185.69" font-family="Times,serif" font-size="14.00">b</text>
</g>
<!-- [&#39;q2&#39;]&#45;&gt;[&#39;q1&#39;] -->
<g id="edge8" class="edge">
<title>[&#39;q2&#39;]&#45;&gt;[&#39;q1&#39;]</title>
<path fill="none" stroke="black" d="M143.23,-163.95C143.72,-174.88 145.42,-186.63 149.45,-196.89 151.12,-201.14 153.51,-205.25 156.22,-209.08"/>
<polygon fill="black" stroke="black" points="153.51,-211.29 162.48,-216.93 158.98,-206.93 153.51,-211.29"/>
<text text-anchor="middle" x="154.45" y="-185.69" font-family="Times,serif" font-size="14.00">b</text>
</g>
<!-- [&#39;q2&#39;]&#45;&gt;[] -->
<g id="edge7" class="edge">
<title>[&#39;q2&#39;]&#45;&gt;[]</title>
<path fill="none" stroke="black" d="M119.17,-97.02C102.5,-79.61 81.2,-57.37 65.61,-41.1"/>
<polygon fill="black" stroke="black" points="67.91,-38.44 58.47,-33.64 62.86,-43.28 67.91,-38.44"/>
<text text-anchor="middle" x="96.95" y="-57.8" font-family="Times,serif" font-size="14.00">a</text>
</g>
<!-- [&#39;q0&#39;, &#39;q2&#39;, &#39;q4&#39;] -->
<g id="node6" class="node">
<title>[&#39;q0&#39;, &#39;q2&#39;, &#39;q4&#39;]</title>
<ellipse fill="aquamarine" stroke="aquamarine" cx="178.45" cy="-385.19" rx="79.1" ry="79.1"/>
<ellipse fill="none" stroke="aquamarine" cx="178.45" cy="-385.19" rx="83.09" ry="83.09"/>
<text text-anchor="middle" x="178.45" y="-381.49" font-family="Times,serif" font-size="14.00">[&#39;q0&#39;, &#39;q2&#39;, &#39;q4&#39;]</text>
</g>
<!-- [&#39;q0&#39;, &#39;q2&#39;, &#39;q4&#39;]&#45;&gt;[&#39;q1&#39;] -->
<g id="edge2" class="edge">
<title>[&#39;q0&#39;, &#39;q2&#39;, &#39;q4&#39;]&#45;&gt;[&#39;q1&#39;]</title>
<path fill="none" stroke="black" d="M178.45,-301.57C178.45,-286.99 178.45,-272.79 178.45,-261.2"/>
<polygon fill="black" stroke="black" points="181.95,-260.95 178.45,-250.95 174.95,-260.95 181.95,-260.95"/>
<text text-anchor="middle" x="183.45" y="-272.69" font-family="Times,serif" font-size="14.00">b</text>
</g>
<!-- [&#39;q0&#39;, &#39;q2&#39;, &#39;q4&#39;]&#45;&gt;[&#39;q3&#39;] -->
<g id="edge1" class="edge">
<title>[&#39;q0&#39;, &#39;q2&#39;, &#39;q4&#39;]&#45;&gt;[&#39;q3&#39;]</title>
<path fill="none" stroke="black" d="M136.99,-312.56C125.93,-293.46 114.69,-274.05 106.15,-259.3"/>
<polygon fill="black" stroke="black" points="108.99,-257.22 100.95,-250.32 102.94,-260.73 108.99,-257.22"/>
<text text-anchor="middle" x="124.95" y="-272.69" font-family="Times,serif" font-size="14.00">a</text>
</g>
</g>
</svg>
