<?xml version="1.0" encoding="UTF-8" standalone="no"?>
<!DOCTYPE svg PUBLIC "-//W3C//DTD SVG 1.1//EN"
 "http://www.w3.org/Graphics/SVG/1.1/DTD/svg11.dtd">
<!-- Generated by graphviz version 2.43.0 (0)
 -->
<!-- Title: %3 Pages: 1 -->
<svg width="205pt" height="245pt"
 viewBox="0.00 0.00 205.15 244.99" xmlns="http://www.w3.org/2000/svg" xmlns:xlink="http://www.w3.org/1999/xlink">
<g id="graph0" class="graph" transform="scale(1 1) rotate(0) translate(4 240.99)">
<title>%3</title>
<polygon fill="white" stroke="transparent" points="-4,4 -4,-240.99 201.15,-240.99 201.15,4 -4,4"/>
<!-- q3 -->
<g id="node1" class="node">
<title>q3</title>
<ellipse fill="none" stroke="black" cx="29.15" cy="-214.24" rx="27" ry="18"/>
<text text-anchor="middle" x="29.15" y="-210.54" font-family="Times,serif" font-size="14.00">q3</text>
</g>
<!-- q4 -->
<g id="node3" class="node">
<title>q4</title>
<ellipse fill="none" stroke="black" cx="51.15" cy="-113.75" rx="22.96" ry="22.96"/>
<ellipse fill="none" stroke="black" cx="51.15" cy="-113.75" rx="27" ry="27"/>
<text text-anchor="middle" x="51.15" y="-110.05" font-family="Times,serif" font-size="14.00">q4</text>
</g>
<!-- q3&#45;&gt;q4 -->
<g id="edge5" class="edge">
<title>q3&#45;&gt;q4</title>
<path fill="none" stroke="black" d="M14.58,-198.97C5.23,-188.01 -4.09,-172.42 2.15,-158.5 6.18,-149.48 13.1,-141.55 20.49,-135.01"/>
<polygon fill="black" stroke="black" points="23,-137.48 28.57,-128.47 18.6,-132.04 23,-137.48"/>
<text text-anchor="middle" x="15.65" y="-162.3" font-family="Times,serif" font-size="14.00">a, b</text>
</g>
<!-- q1 -->
<g id="node2" class="node">
<title>q1</title>
<ellipse fill="none" stroke="black" cx="158.15" cy="-18" rx="27" ry="18"/>
<text text-anchor="middle" x="158.15" y="-14.3" font-family="Times,serif" font-size="14.00">q1</text>
</g>
<!-- q2 -->
<g id="node4" class="node">
<title>q2</title>
<ellipse fill="none" stroke="black" cx="159.15" cy="-113.75" rx="22.96" ry="22.96"/>
<ellipse fill="none" stroke="black" cx="159.15" cy="-113.75" rx="27" ry="27"/>
<text text-anchor="middle" x="159.15" y="-110.05" font-family="Times,serif" font-size="14.00">q2</text>
</g>
<!-- q1&#45;&gt;q2 -->
<g id="edge3" class="edge">
<title>q1&#45;&gt;q2</title>
<path fill="none" stroke="black" d="M158.33,-36.11C158.45,-47.36 158.61,-62.51 158.76,-76.37"/>
<polygon fill="black" stroke="black" points="155.26,-76.67 158.87,-86.63 162.26,-76.6 155.26,-76.67"/>
<text text-anchor="middle" x="172.65" y="-57.8" font-family="Times,serif" font-size="14.00">a, b</text>
</g>
<!-- q4&#45;&gt;q3 -->
<g id="edge6" class="edge">
<title>q4&#45;&gt;q3</title>
<path fill="none" stroke="black" d="M45.46,-140.21C42.3,-154.34 38.38,-171.92 35.17,-186.29"/>
<polygon fill="black" stroke="black" points="31.74,-185.56 32.98,-196.09 38.57,-187.09 31.74,-185.56"/>
<text text-anchor="middle" x="45.65" y="-162.3" font-family="Times,serif" font-size="14.00">a</text>
</g>
<!-- q2&#45;&gt;q1 -->
<g id="edge4" class="edge">
<title>q2&#45;&gt;q1</title>
<path fill="none" stroke="black" d="M148.87,-88.87C145.49,-78.25 143.07,-65.56 145.15,-54 145.67,-51.07 146.43,-48.06 147.32,-45.1"/>
<polygon fill="black" stroke="black" points="150.71,-45.99 150.69,-35.39 144.1,-43.69 150.71,-45.99"/>
<text text-anchor="middle" x="150.15" y="-57.8" font-family="Times,serif" font-size="14.00">b</text>
</g>
<!-- q0 -->
<g id="node5" class="node">
<title>q0</title>
<ellipse fill="aquamarine" stroke="aquamarine" cx="104.15" cy="-214.24" rx="23" ry="23"/>
<text text-anchor="middle" x="104.15" y="-210.54" font-family="Times,serif" font-size="14.00">q0</text>
</g>
<!-- q0&#45;&gt;q4 -->
<g id="edge1" class="edge">
<title>q0&#45;&gt;q4</title>
<path fill="none" stroke="black" d="M93.67,-193.78C86.48,-180.41 76.76,-162.35 68.43,-146.87"/>
<polygon fill="black" stroke="black" points="71.28,-144.77 63.45,-137.62 65.11,-148.09 71.28,-144.77"/>
<text text-anchor="middle" x="109.65" y="-162.3" font-family="Times,serif" font-size="14.00">lambda</text>
</g>
<!-- q0&#45;&gt;q2 -->
<g id="edge2" class="edge">
<title>q0&#45;&gt;q2</title>
<path fill="none" stroke="black" d="M119.61,-197.15C125.65,-190.26 132.29,-181.87 137.15,-173.5 141.54,-165.91 145.35,-157.29 148.51,-149.03"/>
<polygon fill="black" stroke="black" points="151.81,-150.18 151.9,-139.59 145.22,-147.81 151.81,-150.18"/>
<text text-anchor="middle" x="170.65" y="-162.3" font-family="Times,serif" font-size="14.00">lambda</text>
</g>
</g>
</svg>
