<?xml version="1.0" encoding="UTF-8" standalone="no"?>
<!DOCTYPE svg PUBLIC "-//W3C//DTD SVG 1.1//EN"
 "http://www.w3.org/Graphics/SVG/1.1/DTD/svg11.dtd">
<!-- Generated by graphviz version 2.43.0 (0)
 -->
<!-- Title: %3 Pages: 1 -->
<svg width="206pt" height="245pt"
 viewBox="0.00 0.00 206.15 244.99" xmlns="http://www.w3.org/2000/svg" xmlns:xlink="http://www.w3.org/1999/xlink">
<g id="graph0" class="graph" transform="scale(1 1) rotate(0) translate(4 240.99)">
<title>%3</title>
<polygon fill="white" stroke="transparent" points="-4,4 -4,-240.99 202.15,-240.99 202.15,4 -4,4"/>
<!-- q1 -->
<g id="node1" class="node">
<title>q1</title>
<ellipse fill="none" stroke="black" cx="30.15" cy="-214.24" rx="27" ry="18"/>
<text text-anchor="middle" x="30.15" y="-210.54" font-family="Times,serif" font-size="14.00">q1</text>
</g>
<!-- q2 -->
<g id="node4" class="node">
<title>q2</title>
<ellipse fill="none" stroke="black" cx="51.15" cy="-113.75" rx="22.96" ry="22.96"/>
<ellipse fill="none" stroke="black" cx="51.15" cy="-113.75" rx="27" ry="27"/>
<text text-anchor="middle" x="51.15" y="-110.05" font-family="Times,serif" font-size="14.00">q2</text>
</g>
<!-- q1&#45;&gt;q2 -->
<g id="edge3" class="edge">
<title>q1&#45;&gt;q2</title>
<path fill="none" stroke="black" d="M15.15,-199.03C5.51,-188.1 -4.14,-172.53 2.15,-158.5 6.18,-149.48 13.1,-141.55 20.49,-135.01"/>
<polygon fill="black" stroke="black" points="23,-137.48 28.57,-128.47 18.6,-132.04 23,-137.48"/>
<text text-anchor="middle" x="15.65" y="-162.3" font-family="Times,serif" font-size="14.00">a, b</text>
</g>
<!-- q3 -->
<g id="node2" class="node">
<title>q3</title>
<ellipse fill="none" stroke="black" cx="160.15" cy="-18" rx="27" ry="18"/>
<text text-anchor="middle" x="160.15" y="-14.3" font-family="Times,serif" font-size="14.00">q3</text>
</g>
<!-- q4 -->
<g id="node3" class="node">
<title>q4</title>
<ellipse fill="none" stroke="black" cx="160.15" cy="-113.75" rx="22.96" ry="22.96"/>
<ellipse fill="none" stroke="black" cx="160.15" cy="-113.75" rx="27" ry="27"/>
<text text-anchor="middle" x="160.15" y="-110.05" font-family="Times,serif" font-size="14.00">q4</text>
</g>
<!-- q3&#45;&gt;q4 -->
<g id="edge5" class="edge">
<title>q3&#45;&gt;q4</title>
<path fill="none" stroke="black" d="M160.15,-36.11C160.15,-47.36 160.15,-62.51 160.15,-76.37"/>
<polygon fill="black" stroke="black" points="156.65,-76.63 160.15,-86.63 163.65,-76.63 156.65,-76.63"/>
<text text-anchor="middle" x="173.65" y="-57.8" font-family="Times,serif" font-size="14.00">a, b</text>
</g>
<!-- q4&#45;&gt;q3 -->
<g id="edge6" class="edge">
<title>q4&#45;&gt;q3</title>
<path fill="none" stroke="black" d="M150.38,-88.54C147.27,-77.97 145.09,-65.41 147.15,-54 147.67,-51.07 148.43,-48.06 149.32,-45.1"/>
<polygon fill="black" stroke="black" points="152.71,-45.99 152.69,-35.39 146.1,-43.69 152.71,-45.99"/>
<text text-anchor="middle" x="151.65" y="-57.8" font-family="Times,serif" font-size="14.00">a</text>
</g>
<!-- q2&#45;&gt;q1 -->
<g id="edge4" class="edge">
<title>q2&#45;&gt;q1</title>
<path fill="none" stroke="black" d="M45.72,-140.21C42.7,-154.34 38.96,-171.92 35.89,-186.29"/>
<polygon fill="black" stroke="black" points="32.47,-185.58 33.8,-196.09 39.31,-187.04 32.47,-185.58"/>
<text text-anchor="middle" x="47.15" y="-162.3" font-family="Times,serif" font-size="14.00">b</text>
</g>
<!-- q0 -->
<g id="node5" class="node">
<title>q0</title>
<ellipse fill="aquamarine" stroke="aquamarine" cx="105.15" cy="-214.24" rx="23" ry="23"/>
<text text-anchor="middle" x="105.15" y="-210.54" font-family="Times,serif" font-size="14.00">q0</text>
</g>
<!-- q0&#45;&gt;q4 -->
<g id="edge1" class="edge">
<title>q0&#45;&gt;q4</title>
<path fill="none" stroke="black" d="M120.61,-197.15C126.65,-190.26 133.29,-181.87 138.15,-173.5 142.54,-165.91 146.35,-157.29 149.51,-149.03"/>
<polygon fill="black" stroke="black" points="152.81,-150.18 152.9,-139.59 146.22,-147.81 152.81,-150.18"/>
<text text-anchor="middle" x="171.65" y="-162.3" font-family="Times,serif" font-size="14.00">lambda</text>
</g>
<!-- q0&#45;&gt;q2 -->
<g id="edge2" class="edge">
<title>q0&#45;&gt;q2</title>
<path fill="none" stroke="black" d="M94.48,-193.78C87.08,-180.29 77.06,-162.01 68.51,-146.43"/>
<polygon fill="black" stroke="black" points="71.56,-144.71 63.69,-137.62 65.43,-148.07 71.56,-144.71"/>
<text text-anchor="middle" x="109.65" y="-162.3" font-family="Times,serif" font-size="14.00">lambda</text>
</g>
</g>
</svg>
