<?xml version="1.0" encoding="UTF-8" standalone="no"?>
<!DOCTYPE svg PUBLIC "-//W3C//DTD SVG 1.1//EN"
 "http://www.w3.org/Graphics/SVG/1.1/DTD/svg11.dtd">
<!-- Generated by graphviz version 2.43.0 (0)
 -->
<!-- Title: %3 Pages: 1 -->
<svg width="440pt" height="1207pt"
 viewBox="0.00 0.00 440.45 1206.94" xmlns="http://www.w3.org/2000/svg" xmlns:xlink="http://www.w3.org/1999/xlink">
<g id="graph0" class="graph" transform="scale(1 1) rotate(0) translate(4 1202.94)">
<title>%3</title>
<polygon fill="white" stroke="transparent" points="-4,4 -4,-1202.94 436.45,-1202.94 436.45,4 -4,4"/>
<!-- [&#39;q0&#39;, &#39;q1&#39;] -->
<g id="node1" class="node">
<title>[&#39;q0&#39;, &#39;q1&#39;]</title>
<ellipse fill="none" stroke="black" cx="310" cy="-1180.94" rx="56.59" ry="18"/>
<text text-anchor="middle" x="310" y="-1177.24" font-family="Times,serif" font-size="14.00">[&#39;q0&#39;, &#39;q1&#39;]</text>
</g>
<!-- [&#39;q0&#39;, &#39;q2&#39;] -->
<g id="node2" class="node">
<title>[&#39;q0&#39;, &#39;q2&#39;]</title>
<ellipse fill="none" stroke="black" cx="120" cy="-1093.94" rx="56.59" ry="18"/>
<text text-anchor="middle" x="120" y="-1090.24" font-family="Times,serif" font-size="14.00">[&#39;q0&#39;, &#39;q2&#39;]</text>
</g>
<!-- [&#39;q0&#39;, &#39;q1&#39;]&#45;&gt;[&#39;q0&#39;, &#39;q2&#39;] -->
<g id="edge3" class="edge">
<title>[&#39;q0&#39;, &#39;q1&#39;]&#45;&gt;[&#39;q0&#39;, &#39;q2&#39;]</title>
<path fill="none" stroke="black" d="M273.79,-1166.96C256.97,-1160.69 236.79,-1152.83 219,-1144.94 197.92,-1135.59 174.89,-1124.04 156.36,-1114.4"/>
<polygon fill="black" stroke="black" points="157.86,-1111.24 147.38,-1109.7 154.61,-1117.44 157.86,-1111.24"/>
<text text-anchor="middle" x="223.5" y="-1133.74" font-family="Times,serif" font-size="14.00">a</text>
</g>
<!-- [&#39;q0&#39;, &#39;q1&#39;, &#39;q2&#39;] -->
<g id="node3" class="node">
<title>[&#39;q0&#39;, &#39;q1&#39;, &#39;q2&#39;]</title>
<ellipse fill="none" stroke="black" cx="201" cy="-789.35" rx="79.09" ry="18"/>
<text text-anchor="middle" x="201" y="-785.65" font-family="Times,serif" font-size="14.00">[&#39;q0&#39;, &#39;q1&#39;, &#39;q2&#39;]</text>
</g>
<!-- [&#39;q0&#39;, &#39;q1&#39;]&#45;&gt;[&#39;q0&#39;, &#39;q1&#39;, &#39;q2&#39;] -->
<g id="edge4" class="edge">
<title>[&#39;q0&#39;, &#39;q1&#39;]&#45;&gt;[&#39;q0&#39;, &#39;q1&#39;, &#39;q2&#39;]</title>
<path fill="none" stroke="black" d="M305.25,-1162.95C288.14,-1101.81 229.62,-892.66 208.6,-817.51"/>
<polygon fill="black" stroke="black" points="211.84,-816.12 205.78,-807.43 205.1,-818.01 211.84,-816.12"/>
<text text-anchor="middle" x="280" y="-1046.74" font-family="Times,serif" font-size="14.00">b</text>
</g>
<!-- [&#39;q0&#39;, &#39;q1&#39;, &#39;q3&#39;] -->
<g id="node6" class="node">
<title>[&#39;q0&#39;, &#39;q1&#39;, &#39;q3&#39;]</title>
<ellipse fill="none" stroke="black" cx="120" cy="-941.64" rx="79.1" ry="79.1"/>
<ellipse fill="none" stroke="black" cx="120" cy="-941.64" rx="83.09" ry="83.09"/>
<text text-anchor="middle" x="120" y="-937.94" font-family="Times,serif" font-size="14.00">[&#39;q0&#39;, &#39;q1&#39;, &#39;q3&#39;]</text>
</g>
<!-- [&#39;q0&#39;, &#39;q2&#39;]&#45;&gt;[&#39;q0&#39;, &#39;q1&#39;, &#39;q3&#39;] -->
<g id="edge6" class="edge">
<title>[&#39;q0&#39;, &#39;q2&#39;]&#45;&gt;[&#39;q0&#39;, &#39;q1&#39;, &#39;q3&#39;]</title>
<path fill="none" stroke="black" d="M120,-1075.7C120,-1065.2 120,-1050.87 120,-1035.5"/>
<polygon fill="black" stroke="black" points="123.5,-1035.27 120,-1025.27 116.5,-1035.27 123.5,-1035.27"/>
<text text-anchor="middle" x="125" y="-1046.74" font-family="Times,serif" font-size="14.00">b</text>
</g>
<!-- [&#39;q0&#39;, &#39;q3&#39;] -->
<g id="node7" class="node">
<title>[&#39;q0&#39;, &#39;q3&#39;]</title>
<ellipse fill="none" stroke="black" cx="260" cy="-180.44" rx="56.59" ry="56.59"/>
<ellipse fill="none" stroke="black" cx="260" cy="-180.44" rx="60.59" ry="60.59"/>
<text text-anchor="middle" x="260" y="-176.74" font-family="Times,serif" font-size="14.00">[&#39;q0&#39;, &#39;q3&#39;]</text>
</g>
<!-- [&#39;q0&#39;, &#39;q2&#39;]&#45;&gt;[&#39;q0&#39;, &#39;q3&#39;] -->
<g id="edge5" class="edge">
<title>[&#39;q0&#39;, &#39;q2&#39;]&#45;&gt;[&#39;q0&#39;, &#39;q3&#39;]</title>
<path fill="none" stroke="black" d="M91.84,-1078.29C71.5,-1066.4 44.76,-1047.87 28,-1024.94 5.2,-993.75 0,-981.28 0,-942.64 0,-942.64 0,-942.64 0,-374.28 0,-278.75 114.63,-225.06 191.66,-199.77"/>
<polygon fill="black" stroke="black" points="192.87,-203.06 201.33,-196.68 190.74,-196.39 192.87,-203.06"/>
<text text-anchor="middle" x="4.5" y="-742.15" font-family="Times,serif" font-size="14.00">a</text>
</g>
<!-- [&#39;q0&#39;, &#39;q1&#39;, &#39;q2&#39;, &#39;q3&#39;] -->
<g id="node4" class="node">
<title>[&#39;q0&#39;, &#39;q1&#39;, &#39;q2&#39;, &#39;q3&#39;]</title>
<ellipse fill="none" stroke="black" cx="216" cy="-614.96" rx="101.29" ry="101.29"/>
<ellipse fill="none" stroke="black" cx="216" cy="-614.96" rx="105.28" ry="105.28"/>
<text text-anchor="middle" x="216" y="-611.26" font-family="Times,serif" font-size="14.00">[&#39;q0&#39;, &#39;q1&#39;, &#39;q2&#39;, &#39;q3&#39;]</text>
</g>
<!-- [&#39;q0&#39;, &#39;q1&#39;, &#39;q2&#39;]&#45;&gt;[&#39;q0&#39;, &#39;q1&#39;, &#39;q2&#39;, &#39;q3&#39;] -->
<g id="edge8" class="edge">
<title>[&#39;q0&#39;, &#39;q1&#39;, &#39;q2&#39;]&#45;&gt;[&#39;q0&#39;, &#39;q1&#39;, &#39;q2&#39;, &#39;q3&#39;]</title>
<path fill="none" stroke="black" d="M202.49,-771.19C203.41,-760.68 204.67,-746.22 206.05,-730.33"/>
<polygon fill="black" stroke="black" points="209.54,-730.53 206.92,-720.27 202.57,-729.93 209.54,-730.53"/>
<text text-anchor="middle" x="210" y="-742.15" font-family="Times,serif" font-size="14.00">b</text>
</g>
<!-- [&#39;q0&#39;, &#39;q2&#39;, &#39;q3&#39;] -->
<g id="node5" class="node">
<title>[&#39;q0&#39;, &#39;q2&#39;, &#39;q3&#39;]</title>
<ellipse fill="none" stroke="black" cx="138" cy="-375.28" rx="79.1" ry="79.1"/>
<ellipse fill="none" stroke="black" cx="138" cy="-375.28" rx="83.09" ry="83.09"/>
<text text-anchor="middle" x="138" y="-371.58" font-family="Times,serif" font-size="14.00">[&#39;q0&#39;, &#39;q2&#39;, &#39;q3&#39;]</text>
</g>
<!-- [&#39;q0&#39;, &#39;q1&#39;, &#39;q2&#39;]&#45;&gt;[&#39;q0&#39;, &#39;q2&#39;, &#39;q3&#39;] -->
<g id="edge7" class="edge">
<title>[&#39;q0&#39;, &#39;q1&#39;, &#39;q2&#39;]&#45;&gt;[&#39;q0&#39;, &#39;q2&#39;, &#39;q3&#39;]</title>
<path fill="none" stroke="black" d="M159.48,-773.97C135.41,-763.24 107.14,-745.96 93,-720.35 48.76,-640.22 72.88,-534.02 99.8,-460.91"/>
<polygon fill="black" stroke="black" points="103.19,-461.86 103.44,-451.27 96.64,-459.39 103.19,-461.86"/>
<text text-anchor="middle" x="97.5" y="-611.26" font-family="Times,serif" font-size="14.00">a</text>
</g>
<!-- [&#39;q0&#39;, &#39;q1&#39;, &#39;q2&#39;, &#39;q3&#39;]&#45;&gt;[&#39;q0&#39;, &#39;q1&#39;, &#39;q2&#39;, &#39;q3&#39;] -->
<g id="edge16" class="edge">
<title>[&#39;q0&#39;, &#39;q1&#39;, &#39;q2&#39;, &#39;q3&#39;]&#45;&gt;[&#39;q0&#39;, &#39;q1&#39;, &#39;q2&#39;, &#39;q3&#39;]</title>
<path fill="none" stroke="black" d="M319.52,-635.76C331.56,-631.92 339.39,-624.99 339.39,-614.96 339.39,-607.91 335.52,-602.39 329.03,-598.4"/>
<polygon fill="black" stroke="black" points="330.08,-595.03 319.52,-594.16 327.23,-601.42 330.08,-595.03"/>
<text text-anchor="middle" x="344.39" y="-611.26" font-family="Times,serif" font-size="14.00">b</text>
</g>
<!-- [&#39;q0&#39;, &#39;q1&#39;, &#39;q2&#39;, &#39;q3&#39;]&#45;&gt;[&#39;q0&#39;, &#39;q2&#39;, &#39;q3&#39;] -->
<g id="edge15" class="edge">
<title>[&#39;q0&#39;, &#39;q1&#39;, &#39;q2&#39;, &#39;q3&#39;]&#45;&gt;[&#39;q0&#39;, &#39;q2&#39;, &#39;q3&#39;]</title>
<path fill="none" stroke="black" d="M183.37,-514.54C177.89,-497.84 172.24,-480.62 166.87,-464.24"/>
<polygon fill="black" stroke="black" points="170.18,-463.12 163.74,-454.71 163.53,-465.3 170.18,-463.12"/>
<text text-anchor="middle" x="178.5" y="-480.37" font-family="Times,serif" font-size="14.00">a</text>
</g>
<!-- [&#39;q0&#39;, &#39;q2&#39;, &#39;q3&#39;]&#45;&gt;[&#39;q0&#39;, &#39;q1&#39;, &#39;q3&#39;] -->
<g id="edge14" class="edge">
<title>[&#39;q0&#39;, &#39;q2&#39;, &#39;q3&#39;]&#45;&gt;[&#39;q0&#39;, &#39;q1&#39;, &#39;q3&#39;]</title>
<path fill="none" stroke="black" d="M92,-444.78C80.94,-464.81 70.69,-487.33 65,-509.57 35.12,-626.34 63.95,-765.25 89.86,-853.19"/>
<polygon fill="black" stroke="black" points="86.53,-854.29 92.75,-862.86 93.24,-852.28 86.53,-854.29"/>
<text text-anchor="middle" x="71" y="-742.15" font-family="Times,serif" font-size="14.00">b</text>
</g>
<!-- [&#39;q0&#39;, &#39;q2&#39;, &#39;q3&#39;]&#45;&gt;[&#39;q0&#39;, &#39;q3&#39;] -->
<g id="edge13" class="edge">
<title>[&#39;q0&#39;, &#39;q2&#39;, &#39;q3&#39;]&#45;&gt;[&#39;q0&#39;, &#39;q3&#39;]</title>
<path fill="none" stroke="black" d="M182.22,-304.39C195.46,-283.45 209.85,-260.7 222.62,-240.53"/>
<polygon fill="black" stroke="black" points="225.59,-242.38 227.98,-232.06 219.67,-238.64 225.59,-242.38"/>
<text text-anchor="middle" x="213.5" y="-262.78" font-family="Times,serif" font-size="14.00">a</text>
</g>
<!-- [&#39;q0&#39;, &#39;q1&#39;, &#39;q3&#39;]&#45;&gt;[&#39;q0&#39;, &#39;q2&#39;] -->
<g id="edge11" class="edge">
<title>[&#39;q0&#39;, &#39;q1&#39;, &#39;q3&#39;]&#45;&gt;[&#39;q0&#39;, &#39;q2&#39;]</title>
<path fill="none" stroke="black" d="M104.93,-1023.78C104.51,-1035.28 105.02,-1046.93 107,-1057.94 107.49,-1060.66 108.17,-1063.44 108.98,-1066.19"/>
<polygon fill="black" stroke="black" points="105.73,-1067.5 112.27,-1075.83 112.35,-1065.24 105.73,-1067.5"/>
<text text-anchor="middle" x="111.5" y="-1046.74" font-family="Times,serif" font-size="14.00">a</text>
</g>
<!-- [&#39;q0&#39;, &#39;q1&#39;, &#39;q3&#39;]&#45;&gt;[&#39;q0&#39;, &#39;q1&#39;, &#39;q2&#39;] -->
<g id="edge12" class="edge">
<title>[&#39;q0&#39;, &#39;q1&#39;, &#39;q3&#39;]&#45;&gt;[&#39;q0&#39;, &#39;q1&#39;, &#39;q2&#39;]</title>
<path fill="none" stroke="black" d="M159.31,-867.7C169.2,-849.35 179.19,-830.82 186.91,-816.5"/>
<polygon fill="black" stroke="black" points="190.19,-817.78 191.86,-807.31 184.03,-814.46 190.19,-817.78"/>
<text text-anchor="middle" x="186" y="-829.15" font-family="Times,serif" font-size="14.00">b</text>
</g>
<!-- [&#39;q0&#39;, &#39;q3&#39;]&#45;&gt;[&#39;q0&#39;, &#39;q1&#39;] -->
<g id="edge10" class="edge">
<title>[&#39;q0&#39;, &#39;q3&#39;]&#45;&gt;[&#39;q0&#39;, &#39;q1&#39;]</title>
<path fill="none" stroke="black" d="M303.57,-223.03C336.83,-259.43 377,-315.54 377,-374.28 377,-1094.94 377,-1094.94 377,-1094.94 377,-1120.19 358.53,-1142.36 340.98,-1157.72"/>
<polygon fill="black" stroke="black" points="338.53,-1155.21 333.06,-1164.29 342.99,-1160.6 338.53,-1155.21"/>
<text text-anchor="middle" x="382" y="-785.65" font-family="Times,serif" font-size="14.00">b</text>
</g>
<!-- [&#39;q0&#39;] -->
<g id="node8" class="node">
<title>[&#39;q0&#39;]</title>
<ellipse fill="aquamarine" stroke="aquamarine" cx="371" cy="-34.45" rx="34.39" ry="34.39"/>
<text text-anchor="middle" x="371" y="-30.75" font-family="Times,serif" font-size="14.00">[&#39;q0&#39;]</text>
</g>
<!-- [&#39;q0&#39;, &#39;q3&#39;]&#45;&gt;[&#39;q0&#39;] -->
<g id="edge9" class="edge">
<title>[&#39;q0&#39;, &#39;q3&#39;]&#45;&gt;[&#39;q0&#39;]</title>
<path fill="none" stroke="black" d="M296.65,-131.89C312.1,-111.86 329.75,-88.96 343.98,-70.5"/>
<polygon fill="black" stroke="black" points="346.92,-72.42 350.25,-62.36 341.37,-68.15 346.92,-72.42"/>
<text text-anchor="middle" x="332.5" y="-90.69" font-family="Times,serif" font-size="14.00">a</text>
</g>
<!-- [&#39;q0&#39;]&#45;&gt;[&#39;q0&#39;, &#39;q1&#39;] -->
<g id="edge2" class="edge">
<title>[&#39;q0&#39;]&#45;&gt;[&#39;q0&#39;, &#39;q1&#39;]</title>
<path fill="none" stroke="black" d="M385.9,-65.53C398.66,-94.11 415,-138.66 415,-179.44 415,-1094.94 415,-1094.94 415,-1094.94 415,-1127.28 384.53,-1149.45 356.42,-1163.01"/>
<polygon fill="black" stroke="black" points="354.67,-1159.96 347.02,-1167.28 357.57,-1166.33 354.67,-1159.96"/>
<text text-anchor="middle" x="420" y="-742.15" font-family="Times,serif" font-size="14.00">b</text>
</g>
<!-- [&#39;q0&#39;]&#45;&gt;[&#39;q0&#39;] -->
<g id="edge1" class="edge">
<title>[&#39;q0&#39;]&#45;&gt;[&#39;q0&#39;]</title>
<path fill="none" stroke="black" d="M403.78,-45.32C414.71,-45.32 423.45,-41.7 423.45,-34.45 423.45,-29.69 419.68,-26.49 414.01,-24.86"/>
<polygon fill="black" stroke="black" points="414.14,-21.35 403.78,-23.57 413.26,-28.29 414.14,-21.35"/>
<text text-anchor="middle" x="427.95" y="-30.75" font-family="Times,serif" font-size="14.00">a</text>
</g>
</g>
</svg>
