<?xml version="1.0" encoding="UTF-8" standalone="no"?>
<!DOCTYPE svg PUBLIC "-//W3C//DTD SVG 1.1//EN"
 "http://www.w3.org/Graphics/SVG/1.1/DTD/svg11.dtd">
<!-- Generated by graphviz version 2.43.0 (0)
 -->
<!-- Title: %3 Pages: 1 -->
<svg width="385pt" height="1207pt"
 viewBox="0.00 0.00 385.39 1206.94" xmlns="http://www.w3.org/2000/svg" xmlns:xlink="http://www.w3.org/1999/xlink">
<g id="graph0" class="graph" transform="scale(1 1) rotate(0) translate(4 1202.94)">
<title>%3</title>
<polygon fill="white" stroke="transparent" points="-4,4 -4,-1202.94 381.39,-1202.94 381.39,4 -4,4"/>
<!-- [&#39;q0&#39;, &#39;q1&#39;, &#39;q2&#39;] -->
<g id="node1" class="node">
<title>[&#39;q0&#39;, &#39;q1&#39;, &#39;q2&#39;]</title>
<ellipse fill="none" stroke="black" cx="292.39" cy="-1180.94" rx="79.09" ry="18"/>
<text text-anchor="middle" x="292.39" y="-1177.24" font-family="Times,serif" font-size="14.00">[&#39;q0&#39;, &#39;q1&#39;, &#39;q2&#39;]</text>
</g>
<!-- [&#39;q0&#39;, &#39;q1&#39;, &#39;q2&#39;, &#39;q3&#39;] -->
<g id="node6" class="node">
<title>[&#39;q0&#39;, &#39;q1&#39;, &#39;q2&#39;, &#39;q3&#39;]</title>
<ellipse fill="none" stroke="black" cx="105.39" cy="-1006.55" rx="101.29" ry="101.29"/>
<ellipse fill="none" stroke="black" cx="105.39" cy="-1006.55" rx="105.28" ry="105.28"/>
<text text-anchor="middle" x="105.39" y="-1002.85" font-family="Times,serif" font-size="14.00">[&#39;q0&#39;, &#39;q1&#39;, &#39;q2&#39;, &#39;q3&#39;]</text>
</g>
<!-- [&#39;q0&#39;, &#39;q1&#39;, &#39;q2&#39;]&#45;&gt;[&#39;q0&#39;, &#39;q1&#39;, &#39;q2&#39;, &#39;q3&#39;] -->
<g id="edge8" class="edge">
<title>[&#39;q0&#39;, &#39;q1&#39;, &#39;q2&#39;]&#45;&gt;[&#39;q0&#39;, &#39;q1&#39;, &#39;q2&#39;, &#39;q3&#39;]</title>
<path fill="none" stroke="black" d="M272.09,-1163.46C265.13,-1157.69 257.34,-1151.12 250.39,-1144.94 229.84,-1126.68 208.12,-1106.55 187.92,-1087.47"/>
<polygon fill="black" stroke="black" points="190.22,-1084.82 180.55,-1080.49 185.4,-1089.91 190.22,-1084.82"/>
<text text-anchor="middle" x="255.39" y="-1133.74" font-family="Times,serif" font-size="14.00">b</text>
</g>
<!-- [&#39;q0&#39;, &#39;q2&#39;, &#39;q3&#39;] -->
<g id="node7" class="node">
<title>[&#39;q0&#39;, &#39;q2&#39;, &#39;q3&#39;]</title>
<ellipse fill="none" stroke="black" cx="181.39" cy="-766.86" rx="79.1" ry="79.1"/>
<ellipse fill="none" stroke="black" cx="181.39" cy="-766.86" rx="83.09" ry="83.09"/>
<text text-anchor="middle" x="181.39" y="-763.16" font-family="Times,serif" font-size="14.00">[&#39;q0&#39;, &#39;q2&#39;, &#39;q3&#39;]</text>
</g>
<!-- [&#39;q0&#39;, &#39;q1&#39;, &#39;q2&#39;]&#45;&gt;[&#39;q0&#39;, &#39;q2&#39;, &#39;q3&#39;] -->
<g id="edge7" class="edge">
<title>[&#39;q0&#39;, &#39;q1&#39;, &#39;q2&#39;]&#45;&gt;[&#39;q0&#39;, &#39;q2&#39;, &#39;q3&#39;]</title>
<path fill="none" stroke="black" d="M291.42,-1162.87C288.51,-1118.65 278.12,-997.11 247.39,-901.16 241.84,-883.83 234.35,-865.94 226.4,-849.12"/>
<polygon fill="black" stroke="black" points="229.45,-847.38 221.95,-839.89 223.14,-850.42 229.45,-847.38"/>
<text text-anchor="middle" x="290.89" y="-1002.85" font-family="Times,serif" font-size="14.00">a</text>
</g>
<!-- [&#39;q0&#39;, &#39;q1&#39;] -->
<g id="node2" class="node">
<title>[&#39;q0&#39;, &#39;q1&#39;]</title>
<ellipse fill="none" stroke="black" cx="244.39" cy="-18" rx="56.59" ry="18"/>
<text text-anchor="middle" x="244.39" y="-14.3" font-family="Times,serif" font-size="14.00">[&#39;q0&#39;, &#39;q1&#39;]</text>
</g>
<!-- [&#39;q0&#39;, &#39;q1&#39;]&#45;&gt;[&#39;q0&#39;, &#39;q1&#39;, &#39;q2&#39;] -->
<g id="edge4" class="edge">
<title>[&#39;q0&#39;, &#39;q1&#39;]&#45;&gt;[&#39;q0&#39;, &#39;q1&#39;, &#39;q2&#39;]</title>
<path fill="none" stroke="black" d="M281.63,-31.71C317.83,-46.71 367.39,-75.47 367.39,-120.45 367.39,-1007.55 367.39,-1007.55 367.39,-1007.55 367.39,-1063.63 333.6,-1122.1 311.38,-1154.48"/>
<polygon fill="black" stroke="black" points="308.35,-1152.71 305.46,-1162.9 314.07,-1156.73 308.35,-1152.71"/>
<text text-anchor="middle" x="372.39" y="-436.78" font-family="Times,serif" font-size="14.00">b</text>
</g>
<!-- [&#39;q0&#39;, &#39;q2&#39;] -->
<g id="node3" class="node">
<title>[&#39;q0&#39;, &#39;q2&#39;]</title>
<ellipse fill="none" stroke="black" cx="260.39" cy="-396.98" rx="56.59" ry="18"/>
<text text-anchor="middle" x="260.39" y="-393.28" font-family="Times,serif" font-size="14.00">[&#39;q0&#39;, &#39;q2&#39;]</text>
</g>
<!-- [&#39;q0&#39;, &#39;q1&#39;]&#45;&gt;[&#39;q0&#39;, &#39;q2&#39;] -->
<g id="edge3" class="edge">
<title>[&#39;q0&#39;, &#39;q1&#39;]&#45;&gt;[&#39;q0&#39;, &#39;q2&#39;]</title>
<path fill="none" stroke="black" d="M245.42,-36.09C245.75,-41.78 246.1,-48.16 246.39,-54 252.13,-171.09 257.34,-310.81 259.43,-368.75"/>
<polygon fill="black" stroke="black" points="255.93,-369.03 259.79,-378.9 262.93,-368.78 255.93,-369.03"/>
<text text-anchor="middle" x="257.89" y="-177.69" font-family="Times,serif" font-size="14.00">a</text>
</g>
<!-- [&#39;q0&#39;, &#39;q1&#39;, &#39;q3&#39;] -->
<g id="node4" class="node">
<title>[&#39;q0&#39;, &#39;q1&#39;, &#39;q3&#39;]</title>
<ellipse fill="none" stroke="black" cx="256.39" cy="-549.28" rx="79.1" ry="79.1"/>
<ellipse fill="none" stroke="black" cx="256.39" cy="-549.28" rx="83.09" ry="83.09"/>
<text text-anchor="middle" x="256.39" y="-545.58" font-family="Times,serif" font-size="14.00">[&#39;q0&#39;, &#39;q1&#39;, &#39;q3&#39;]</text>
</g>
<!-- [&#39;q0&#39;, &#39;q2&#39;]&#45;&gt;[&#39;q0&#39;, &#39;q1&#39;, &#39;q3&#39;] -->
<g id="edge6" class="edge">
<title>[&#39;q0&#39;, &#39;q2&#39;]&#45;&gt;[&#39;q0&#39;, &#39;q1&#39;, &#39;q3&#39;]</title>
<path fill="none" stroke="black" d="M259.94,-415.04C259.66,-425.54 259.27,-439.93 258.86,-455.38"/>
<polygon fill="black" stroke="black" points="255.36,-455.57 258.59,-465.66 262.35,-455.75 255.36,-455.57"/>
<text text-anchor="middle" x="265.39" y="-436.78" font-family="Times,serif" font-size="14.00">b</text>
</g>
<!-- [&#39;q0&#39;, &#39;q3&#39;] -->
<g id="node5" class="node">
<title>[&#39;q0&#39;, &#39;q3&#39;]</title>
<ellipse fill="none" stroke="black" cx="146.39" cy="-267.44" rx="56.59" ry="56.59"/>
<ellipse fill="none" stroke="black" cx="146.39" cy="-267.44" rx="60.59" ry="60.59"/>
<text text-anchor="middle" x="146.39" y="-263.74" font-family="Times,serif" font-size="14.00">[&#39;q0&#39;, &#39;q3&#39;]</text>
</g>
<!-- [&#39;q0&#39;, &#39;q2&#39;]&#45;&gt;[&#39;q0&#39;, &#39;q3&#39;] -->
<g id="edge5" class="edge">
<title>[&#39;q0&#39;, &#39;q2&#39;]&#45;&gt;[&#39;q0&#39;, &#39;q3&#39;]</title>
<path fill="none" stroke="black" d="M245.72,-379.57C232.38,-364.65 211.97,-341.81 193.1,-320.7"/>
<polygon fill="black" stroke="black" points="195.51,-318.15 186.24,-313.02 190.29,-322.81 195.51,-318.15"/>
<text text-anchor="middle" x="231.89" y="-349.78" font-family="Times,serif" font-size="14.00">a</text>
</g>
<!-- [&#39;q0&#39;, &#39;q1&#39;, &#39;q3&#39;]&#45;&gt;[&#39;q0&#39;, &#39;q1&#39;, &#39;q2&#39;] -->
<g id="edge12" class="edge">
<title>[&#39;q0&#39;, &#39;q1&#39;, &#39;q3&#39;]&#45;&gt;[&#39;q0&#39;, &#39;q1&#39;, &#39;q2&#39;]</title>
<path fill="none" stroke="black" d="M267.04,-632.02C269.2,-649.05 271.41,-666.89 273.39,-683.57 297.64,-887.46 311.95,-940.12 297.39,-1144.94 297.21,-1147.51 296.95,-1150.18 296.65,-1152.85"/>
<polygon fill="black" stroke="black" points="293.16,-1152.53 295.32,-1162.9 300.1,-1153.44 293.16,-1152.53"/>
<text text-anchor="middle" x="301.39" y="-871.96" font-family="Times,serif" font-size="14.00">b</text>
</g>
<!-- [&#39;q0&#39;, &#39;q1&#39;, &#39;q3&#39;]&#45;&gt;[&#39;q0&#39;, &#39;q2&#39;] -->
<g id="edge11" class="edge">
<title>[&#39;q0&#39;, &#39;q1&#39;, &#39;q3&#39;]&#45;&gt;[&#39;q0&#39;, &#39;q2&#39;]</title>
<path fill="none" stroke="black" d="M243.71,-466.73C243.57,-455.34 244.3,-443.83 246.39,-432.98 246.92,-430.25 247.66,-427.45 248.52,-424.69"/>
<polygon fill="black" stroke="black" points="251.91,-425.63 252.07,-415.04 245.34,-423.22 251.91,-425.63"/>
<text text-anchor="middle" x="250.89" y="-436.78" font-family="Times,serif" font-size="14.00">a</text>
</g>
<!-- [&#39;q0&#39;, &#39;q3&#39;]&#45;&gt;[&#39;q0&#39;, &#39;q1&#39;] -->
<g id="edge10" class="edge">
<title>[&#39;q0&#39;, &#39;q3&#39;]&#45;&gt;[&#39;q0&#39;, &#39;q1&#39;]</title>
<path fill="none" stroke="black" d="M173.04,-213.01C181.59,-195.06 190.8,-174.79 198.39,-155.89 213.47,-118.35 227.82,-73.74 236.36,-45.89"/>
<polygon fill="black" stroke="black" points="239.78,-46.67 239.35,-36.09 233.09,-44.64 239.78,-46.67"/>
<text text-anchor="middle" x="228.39" y="-117.75" font-family="Times,serif" font-size="14.00">b</text>
</g>
<!-- [&#39;q0&#39;] -->
<g id="node8" class="node">
<title>[&#39;q0&#39;]</title>
<ellipse fill="aquamarine" stroke="aquamarine" cx="128.39" cy="-121.45" rx="34.39" ry="34.39"/>
<text text-anchor="middle" x="128.39" y="-117.75" font-family="Times,serif" font-size="14.00">[&#39;q0&#39;]</text>
</g>
<!-- [&#39;q0&#39;, &#39;q3&#39;]&#45;&gt;[&#39;q0&#39;] -->
<g id="edge9" class="edge">
<title>[&#39;q0&#39;, &#39;q3&#39;]&#45;&gt;[&#39;q0&#39;]</title>
<path fill="none" stroke="black" d="M138.97,-207.04C137.24,-193.23 135.43,-178.77 133.81,-165.8"/>
<polygon fill="black" stroke="black" points="137.27,-165.24 132.55,-155.76 130.32,-166.11 137.27,-165.24"/>
<text text-anchor="middle" x="140.89" y="-177.69" font-family="Times,serif" font-size="14.00">a</text>
</g>
<!-- [&#39;q0&#39;, &#39;q1&#39;, &#39;q2&#39;, &#39;q3&#39;]&#45;&gt;[&#39;q0&#39;, &#39;q1&#39;, &#39;q2&#39;, &#39;q3&#39;] -->
<g id="edge16" class="edge">
<title>[&#39;q0&#39;, &#39;q1&#39;, &#39;q2&#39;, &#39;q3&#39;]&#45;&gt;[&#39;q0&#39;, &#39;q1&#39;, &#39;q2&#39;, &#39;q3&#39;]</title>
<path fill="none" stroke="black" d="M208.91,-1027.35C220.95,-1023.51 228.78,-1016.58 228.78,-1006.55 228.78,-999.49 224.91,-993.97 218.42,-989.98"/>
<polygon fill="black" stroke="black" points="219.47,-986.61 208.91,-985.74 216.62,-993.01 219.47,-986.61"/>
<text text-anchor="middle" x="233.78" y="-1002.85" font-family="Times,serif" font-size="14.00">b</text>
</g>
<!-- [&#39;q0&#39;, &#39;q1&#39;, &#39;q2&#39;, &#39;q3&#39;]&#45;&gt;[&#39;q0&#39;, &#39;q2&#39;, &#39;q3&#39;] -->
<g id="edge15" class="edge">
<title>[&#39;q0&#39;, &#39;q1&#39;, &#39;q2&#39;, &#39;q3&#39;]&#45;&gt;[&#39;q0&#39;, &#39;q2&#39;, &#39;q3&#39;]</title>
<path fill="none" stroke="black" d="M137.29,-905.78C142.54,-889.37 147.95,-872.46 153.1,-856.35"/>
<polygon fill="black" stroke="black" points="156.56,-857.02 156.27,-846.43 149.89,-854.89 156.56,-857.02"/>
<text text-anchor="middle" x="152.89" y="-871.96" font-family="Times,serif" font-size="14.00">a</text>
</g>
<!-- [&#39;q0&#39;, &#39;q2&#39;, &#39;q3&#39;]&#45;&gt;[&#39;q0&#39;, &#39;q1&#39;, &#39;q3&#39;] -->
<g id="edge14" class="edge">
<title>[&#39;q0&#39;, &#39;q2&#39;, &#39;q3&#39;]&#45;&gt;[&#39;q0&#39;, &#39;q1&#39;, &#39;q3&#39;]</title>
<path fill="none" stroke="black" d="M208.47,-688.03C214.11,-671.8 220.1,-654.58 225.87,-638.02"/>
<polygon fill="black" stroke="black" points="229.25,-638.95 229.23,-628.36 222.64,-636.65 229.25,-638.95"/>
<text text-anchor="middle" x="226.39" y="-654.37" font-family="Times,serif" font-size="14.00">b</text>
</g>
<!-- [&#39;q0&#39;, &#39;q2&#39;, &#39;q3&#39;]&#45;&gt;[&#39;q0&#39;, &#39;q3&#39;] -->
<g id="edge13" class="edge">
<title>[&#39;q0&#39;, &#39;q2&#39;, &#39;q3&#39;]&#45;&gt;[&#39;q0&#39;, &#39;q3&#39;]</title>
<path fill="none" stroke="black" d="M169.96,-684.2C167.86,-667.16 165.87,-649.3 164.39,-632.57 155.36,-530.35 150.55,-411.56 148.23,-338.19"/>
<polygon fill="black" stroke="black" points="151.73,-338.03 147.92,-328.14 144.73,-338.24 151.73,-338.03"/>
<text text-anchor="middle" x="156.89" y="-436.78" font-family="Times,serif" font-size="14.00">a</text>
</g>
<!-- [&#39;q0&#39;]&#45;&gt;[&#39;q0&#39;, &#39;q1&#39;] -->
<g id="edge2" class="edge">
<title>[&#39;q0&#39;]&#45;&gt;[&#39;q0&#39;, &#39;q1&#39;]</title>
<path fill="none" stroke="black" d="M153.09,-97.34C167.09,-84.41 185.03,-68.09 201.39,-54 206.06,-49.98 211.09,-45.78 216,-41.74"/>
<polygon fill="black" stroke="black" points="218.54,-44.19 224.08,-35.15 214.11,-38.76 218.54,-44.19"/>
<text text-anchor="middle" x="206.39" y="-57.8" font-family="Times,serif" font-size="14.00">b</text>
</g>
<!-- [&#39;q0&#39;]&#45;&gt;[&#39;q0&#39;] -->
<g id="edge1" class="edge">
<title>[&#39;q0&#39;]&#45;&gt;[&#39;q0&#39;]</title>
<path fill="none" stroke="black" d="M161.17,-132.32C172.1,-132.32 180.84,-128.7 180.84,-121.45 180.84,-116.69 177.07,-113.49 171.4,-111.86"/>
<polygon fill="black" stroke="black" points="171.53,-108.35 161.17,-110.57 170.66,-115.29 171.53,-108.35"/>
<text text-anchor="middle" x="185.34" y="-117.75" font-family="Times,serif" font-size="14.00">a</text>
</g>
</g>
</svg>
