<?xml version="1.0" encoding="UTF-8" standalone="no"?>
<!DOCTYPE svg PUBLIC "-//W3C//DTD SVG 1.1//EN"
 "http://www.w3.org/Graphics/SVG/1.1/DTD/svg11.dtd">
<!-- Generated by graphviz version 2.43.0 (0)
 -->
<!-- Title: %3 Pages: 1 -->
<svg width="294pt" height="732pt"
 viewBox="0.00 0.00 293.74 732.27" xmlns="http://www.w3.org/2000/svg" xmlns:xlink="http://www.w3.org/1999/xlink">
<g id="graph0" class="graph" transform="scale(1 1) rotate(0) translate(4 728.27)">
<title>%3</title>
<polygon fill="white" stroke="transparent" points="-4,4 -4,-728.27 289.74,-728.27 289.74,4 -4,4"/>
<!-- [&#39;q2&#39;, &#39;q3&#39;] -->
<g id="node1" class="node">
<title>[&#39;q2&#39;, &#39;q3&#39;]</title>
<ellipse fill="none" stroke="black" cx="100.29" cy="-685.82" rx="56.59" ry="18"/>
<text text-anchor="middle" x="100.29" y="-682.12" font-family="Times,serif" font-size="14.00">[&#39;q2&#39;, &#39;q3&#39;]</text>
</g>
<!-- [&#39;q2&#39;] -->
<g id="node4" class="node">
<title>[&#39;q2&#39;]</title>
<ellipse fill="none" stroke="black" cx="129.29" cy="-557.93" rx="34.39" ry="18"/>
<text text-anchor="middle" x="129.29" y="-554.23" font-family="Times,serif" font-size="14.00">[&#39;q2&#39;]</text>
</g>
<!-- [&#39;q2&#39;, &#39;q3&#39;]&#45;&gt;[&#39;q2&#39;] -->
<g id="edge11" class="edge">
<title>[&#39;q2&#39;, &#39;q3&#39;]&#45;&gt;[&#39;q2&#39;]</title>
<path fill="none" stroke="black" d="M104.2,-667.84C109.05,-646.82 117.36,-610.75 123.08,-585.92"/>
<polygon fill="black" stroke="black" points="126.52,-586.57 125.35,-576.04 119.7,-585 126.52,-586.57"/>
<text text-anchor="middle" x="120.79" y="-618.17" font-family="Times,serif" font-size="14.00">a</text>
</g>
<!-- [&#39;q2&#39;, &#39;q3&#39;, &#39;q4&#39;] -->
<g id="node7" class="node">
<title>[&#39;q2&#39;, &#39;q3&#39;, &#39;q4&#39;]</title>
<ellipse fill="none" stroke="black" cx="83.29" cy="-83.29" rx="79.1" ry="79.1"/>
<ellipse fill="none" stroke="black" cx="83.29" cy="-83.29" rx="83.09" ry="83.09"/>
<text text-anchor="middle" x="83.29" y="-79.59" font-family="Times,serif" font-size="14.00">[&#39;q2&#39;, &#39;q3&#39;, &#39;q4&#39;]</text>
</g>
<!-- [&#39;q2&#39;, &#39;q3&#39;]&#45;&gt;[&#39;q2&#39;, &#39;q3&#39;, &#39;q4&#39;] -->
<g id="edge12" class="edge">
<title>[&#39;q2&#39;, &#39;q3&#39;]&#45;&gt;[&#39;q2&#39;, &#39;q3&#39;, &#39;q4&#39;]</title>
<path fill="none" stroke="black" d="M92.8,-667.68C83.07,-643.79 67.29,-598.92 67.29,-558.93 67.29,-558.93 67.29,-558.93 67.29,-234.59 67.29,-215.59 68.57,-195.32 70.41,-176.02"/>
<polygon fill="black" stroke="black" points="73.89,-176.33 71.41,-166.03 66.93,-175.63 73.89,-176.33"/>
<text text-anchor="middle" x="72.29" y="-362.39" font-family="Times,serif" font-size="14.00">b</text>
</g>
<!-- [&#39;q6&#39;, &#39;q7&#39;] -->
<g id="node2" class="node">
<title>[&#39;q6&#39;, &#39;q7&#39;]</title>
<ellipse fill="none" stroke="black" cx="160.29" cy="-235.59" rx="56.59" ry="18"/>
<text text-anchor="middle" x="160.29" y="-231.89" font-family="Times,serif" font-size="14.00">[&#39;q6&#39;, &#39;q7&#39;]</text>
</g>
<!-- [&#39;q6&#39;] -->
<g id="node3" class="node">
<title>[&#39;q6&#39;]</title>
<ellipse fill="none" stroke="black" cx="193.29" cy="-322.59" rx="34.39" ry="18"/>
<text text-anchor="middle" x="193.29" y="-318.89" font-family="Times,serif" font-size="14.00">[&#39;q6&#39;]</text>
</g>
<!-- [&#39;q6&#39;, &#39;q7&#39;]&#45;&gt;[&#39;q6&#39;] -->
<g id="edge14" class="edge">
<title>[&#39;q6&#39;, &#39;q7&#39;]&#45;&gt;[&#39;q6&#39;]</title>
<path fill="none" stroke="black" d="M157.22,-253.84C156.19,-263.76 156.19,-276.26 160.29,-286.59 162.12,-291.19 164.88,-295.55 168.03,-299.52"/>
<polygon fill="black" stroke="black" points="165.59,-302.03 174.9,-307.08 170.77,-297.32 165.59,-302.03"/>
<text text-anchor="middle" x="165.29" y="-275.39" font-family="Times,serif" font-size="14.00">b</text>
</g>
<!-- [&#39;q6&#39;, &#39;q7&#39;]&#45;&gt;[&#39;q2&#39;, &#39;q3&#39;, &#39;q4&#39;] -->
<g id="edge13" class="edge">
<title>[&#39;q6&#39;, &#39;q7&#39;]&#45;&gt;[&#39;q2&#39;, &#39;q3&#39;, &#39;q4&#39;]</title>
<path fill="none" stroke="black" d="M151.61,-217.64C145.03,-204.79 135.45,-186.09 125.53,-166.74"/>
<polygon fill="black" stroke="black" points="128.64,-165.13 120.97,-157.83 122.41,-168.32 128.64,-165.13"/>
<text text-anchor="middle" x="145.79" y="-188.39" font-family="Times,serif" font-size="14.00">a</text>
</g>
<!-- [&#39;q6&#39;]&#45;&gt;[&#39;q6&#39;, &#39;q7&#39;] -->
<g id="edge9" class="edge">
<title>[&#39;q6&#39;]&#45;&gt;[&#39;q6&#39;, &#39;q7&#39;]</title>
<path fill="none" stroke="black" d="M186.77,-304.79C182.15,-292.88 175.85,-276.65 170.55,-263.01"/>
<polygon fill="black" stroke="black" points="173.79,-261.69 166.91,-253.64 167.27,-264.22 173.79,-261.69"/>
<text text-anchor="middle" x="182.79" y="-275.39" font-family="Times,serif" font-size="14.00">a</text>
</g>
<!-- [&#39;q6&#39;]&#45;&gt;[&#39;q6&#39;] -->
<g id="edge10" class="edge">
<title>[&#39;q6&#39;]&#45;&gt;[&#39;q6&#39;]</title>
<path fill="none" stroke="black" d="M224.52,-330.44C236.16,-330.7 245.74,-328.08 245.74,-322.59 245.74,-318.81 241.21,-316.39 234.6,-315.33"/>
<polygon fill="black" stroke="black" points="234.71,-311.83 224.52,-314.73 234.3,-318.82 234.71,-311.83"/>
<text text-anchor="middle" x="250.74" y="-318.89" font-family="Times,serif" font-size="14.00">b</text>
</g>
<!-- [&#39;q2&#39;]&#45;&gt;[&#39;q2&#39;, &#39;q3&#39;] -->
<g id="edge8" class="edge">
<title>[&#39;q2&#39;]&#45;&gt;[&#39;q2&#39;, &#39;q3&#39;]</title>
<path fill="none" stroke="black" d="M118.63,-575.14C112.25,-585.81 104.74,-600.34 101.29,-614.37 97.87,-628.29 97.37,-644.23 97.84,-657.42"/>
<polygon fill="black" stroke="black" points="94.36,-657.96 98.41,-667.75 101.35,-657.57 94.36,-657.96"/>
<text text-anchor="middle" x="106.29" y="-618.17" font-family="Times,serif" font-size="14.00">b</text>
</g>
<!-- [&#39;q2&#39;]&#45;&gt;[&#39;q2&#39;] -->
<g id="edge7" class="edge">
<title>[&#39;q2&#39;]&#45;&gt;[&#39;q2&#39;]</title>
<path fill="none" stroke="black" d="M156.28,-569.21C169.74,-570.77 181.74,-567.01 181.74,-557.93 181.74,-551.26 175.27,-547.46 166.5,-546.53"/>
<polygon fill="black" stroke="black" points="166.24,-543.03 156.28,-546.65 166.32,-550.03 166.24,-543.03"/>
<text text-anchor="middle" x="186.24" y="-554.23" font-family="Times,serif" font-size="14.00">a</text>
</g>
<!-- [&#39;q1&#39;] -->
<g id="node5" class="node">
<title>[&#39;q1&#39;]</title>
<ellipse fill="none" stroke="black" cx="214.29" cy="-685.82" rx="34.4" ry="34.4"/>
<ellipse fill="none" stroke="black" cx="214.29" cy="-685.82" rx="38.39" ry="38.39"/>
<text text-anchor="middle" x="214.29" y="-682.12" font-family="Times,serif" font-size="14.00">[&#39;q1&#39;]</text>
</g>
<!-- [&#39;q1&#39;]&#45;&gt;[&#39;q2&#39;] -->
<g id="edge3" class="edge">
<title>[&#39;q1&#39;]&#45;&gt;[&#39;q2&#39;]</title>
<path fill="none" stroke="black" d="M193.06,-653.38C178.48,-631.78 159.39,-603.51 145.92,-583.55"/>
<polygon fill="black" stroke="black" points="148.65,-581.34 140.15,-575.01 142.85,-585.26 148.65,-581.34"/>
<text text-anchor="middle" x="178.79" y="-618.17" font-family="Times,serif" font-size="14.00">a</text>
</g>
<!-- [&#39;q0&#39;] -->
<g id="node8" class="node">
<title>[&#39;q0&#39;]</title>
<ellipse fill="aquamarine" stroke="aquamarine" cx="247.29" cy="-557.93" rx="34.4" ry="34.4"/>
<ellipse fill="none" stroke="aquamarine" cx="247.29" cy="-557.93" rx="38.39" ry="38.39"/>
<text text-anchor="middle" x="247.29" y="-554.23" font-family="Times,serif" font-size="14.00">[&#39;q0&#39;]</text>
</g>
<!-- [&#39;q1&#39;]&#45;&gt;[&#39;q0&#39;] -->
<g id="edge4" class="edge">
<title>[&#39;q1&#39;]&#45;&gt;[&#39;q0&#39;]</title>
<path fill="none" stroke="black" d="M211.32,-647.4C211.4,-636.58 212.4,-624.87 215.29,-614.37 216.7,-609.28 218.68,-604.17 220.98,-599.22"/>
<polygon fill="black" stroke="black" points="224.29,-600.44 225.73,-589.95 218.06,-597.25 224.29,-600.44"/>
<text text-anchor="middle" x="220.29" y="-618.17" font-family="Times,serif" font-size="14.00">b</text>
</g>
<!-- [&#39;q5&#39;] -->
<g id="node6" class="node">
<title>[&#39;q5&#39;]</title>
<ellipse fill="none" stroke="black" cx="215.29" cy="-430.03" rx="34.4" ry="34.4"/>
<ellipse fill="none" stroke="black" cx="215.29" cy="-430.03" rx="38.39" ry="38.39"/>
<text text-anchor="middle" x="215.29" y="-426.33" font-family="Times,serif" font-size="14.00">[&#39;q5&#39;]</text>
</g>
<!-- [&#39;q5&#39;]&#45;&gt;[&#39;q6&#39;] -->
<g id="edge6" class="edge">
<title>[&#39;q5&#39;]&#45;&gt;[&#39;q6&#39;]</title>
<path fill="none" stroke="black" d="M207.6,-392.15C204.73,-378.42 201.54,-363.1 198.9,-350.44"/>
<polygon fill="black" stroke="black" points="202.29,-349.59 196.82,-340.51 195.44,-351.02 202.29,-349.59"/>
<text text-anchor="middle" x="208.29" y="-362.39" font-family="Times,serif" font-size="14.00">b</text>
</g>
<!-- [&#39;q5&#39;]&#45;&gt;[&#39;q0&#39;] -->
<g id="edge5" class="edge">
<title>[&#39;q5&#39;]&#45;&gt;[&#39;q0&#39;]</title>
<path fill="none" stroke="black" d="M213.13,-468.43C213.37,-479.24 214.47,-490.96 217.29,-501.48 218.61,-506.38 220.43,-511.31 222.53,-516.12"/>
<polygon fill="black" stroke="black" points="219.38,-517.65 226.85,-525.15 225.69,-514.62 219.38,-517.65"/>
<text text-anchor="middle" x="221.79" y="-490.28" font-family="Times,serif" font-size="14.00">a</text>
</g>
<!-- [&#39;q2&#39;, &#39;q3&#39;, &#39;q4&#39;]&#45;&gt;[&#39;q2&#39;, &#39;q3&#39;, &#39;q4&#39;] -->
<g id="edge15" class="edge">
<title>[&#39;q2&#39;, &#39;q3&#39;, &#39;q4&#39;]&#45;&gt;[&#39;q2&#39;, &#39;q3&#39;, &#39;q4&#39;]</title>
<path fill="none" stroke="black" d="M164.76,-101.57C176.61,-98.67 184.59,-92.57 184.59,-83.29 184.59,-76.77 180.64,-71.82 174.18,-68.45"/>
<polygon fill="black" stroke="black" points="175.36,-65.15 164.76,-65.02 172.96,-71.73 175.36,-65.15"/>
<text text-anchor="middle" x="198.09" y="-79.59" font-family="Times,serif" font-size="14.00">a, b</text>
</g>
<!-- [&#39;q0&#39;]&#45;&gt;[&#39;q1&#39;] -->
<g id="edge1" class="edge">
<title>[&#39;q0&#39;]&#45;&gt;[&#39;q1&#39;]</title>
<path fill="none" stroke="black" d="M237.77,-595.26C234.21,-608.82 230.13,-624.4 226.37,-638.73"/>
<polygon fill="black" stroke="black" points="222.99,-637.85 223.84,-648.41 229.76,-639.62 222.99,-637.85"/>
<text text-anchor="middle" x="235.79" y="-618.17" font-family="Times,serif" font-size="14.00">a</text>
</g>
<!-- [&#39;q0&#39;]&#45;&gt;[&#39;q5&#39;] -->
<g id="edge2" class="edge">
<title>[&#39;q0&#39;]&#45;&gt;[&#39;q5&#39;]</title>
<path fill="none" stroke="black" d="M238.04,-520.51C234.62,-507.07 230.7,-491.66 227.09,-477.45"/>
<polygon fill="black" stroke="black" points="230.38,-476.19 224.53,-467.36 223.6,-477.92 230.38,-476.19"/>
<text text-anchor="middle" x="236.29" y="-490.28" font-family="Times,serif" font-size="14.00">b</text>
</g>
</g>
</svg>
