<?xml version="1.0" encoding="UTF-8" standalone="no"?>
<!DOCTYPE svg PUBLIC "-//W3C//DTD SVG 1.1//EN"
 "http://www.w3.org/Graphics/SVG/1.1/DTD/svg11.dtd">
<!-- Generated by graphviz version 2.43.0 (0)
 -->
<!-- Title: %3 Pages: 1 -->
<svg width="484pt" height="1038pt"
 viewBox="0.00 0.00 483.74 1038.25" xmlns="http://www.w3.org/2000/svg" xmlns:xlink="http://www.w3.org/1999/xlink">
<g id="graph0" class="graph" transform="scale(1 1) rotate(0) translate(4 1034.25)">
<title>%3</title>
<polygon fill="white" stroke="transparent" points="-4,4 -4,-1034.25 479.74,-1034.25 479.74,4 -4,4"/>
<!-- [&#39;q2&#39;, &#39;q3&#39;] -->
<g id="node1" class="node">
<title>[&#39;q2&#39;, &#39;q3&#39;]</title>
<ellipse fill="none" stroke="black" cx="66.45" cy="-991.8" rx="56.59" ry="18"/>
<text text-anchor="middle" x="66.45" y="-988.1" font-family="Times,serif" font-size="14.00">[&#39;q2&#39;, &#39;q3&#39;]</text>
</g>
<!-- [&#39;q2&#39;] -->
<g id="node4" class="node">
<title>[&#39;q2&#39;]</title>
<ellipse fill="none" stroke="black" cx="34.45" cy="-819.06" rx="34.39" ry="18"/>
<text text-anchor="middle" x="34.45" y="-815.36" font-family="Times,serif" font-size="14.00">[&#39;q2&#39;]</text>
</g>
<!-- [&#39;q2&#39;, &#39;q3&#39;]&#45;&gt;[&#39;q2&#39;] -->
<g id="edge11" class="edge">
<title>[&#39;q2&#39;, &#39;q3&#39;]&#45;&gt;[&#39;q2&#39;]</title>
<path fill="none" stroke="black" d="M56.45,-973.96C50.66,-963.28 43.85,-948.97 40.45,-935.35 33.06,-905.84 32.32,-870.81 32.95,-847.16"/>
<polygon fill="black" stroke="black" points="36.45,-847.28 33.31,-837.16 29.45,-847.03 36.45,-847.28"/>
<text text-anchor="middle" x="44.95" y="-924.15" font-family="Times,serif" font-size="14.00">a</text>
</g>
<!-- [&#39;q2&#39;, &#39;q3&#39;, &#39;q4&#39;] -->
<g id="node6" class="node">
<title>[&#39;q2&#39;, &#39;q3&#39;, &#39;q4&#39;]</title>
<ellipse fill="none" stroke="black" cx="197.45" cy="-819.06" rx="79.1" ry="79.1"/>
<ellipse fill="none" stroke="black" cx="197.45" cy="-819.06" rx="83.09" ry="83.09"/>
<text text-anchor="middle" x="197.45" y="-815.36" font-family="Times,serif" font-size="14.00">[&#39;q2&#39;, &#39;q3&#39;, &#39;q4&#39;]</text>
</g>
<!-- [&#39;q2&#39;, &#39;q3&#39;]&#45;&gt;[&#39;q2&#39;, &#39;q3&#39;, &#39;q4&#39;] -->
<g id="edge12" class="edge">
<title>[&#39;q2&#39;, &#39;q3&#39;]&#45;&gt;[&#39;q2&#39;, &#39;q3&#39;, &#39;q4&#39;]</title>
<path fill="none" stroke="black" d="M79.25,-974.12C93.67,-955.32 118.09,-923.49 141.01,-893.62"/>
<polygon fill="black" stroke="black" points="143.8,-895.74 147.11,-885.67 138.24,-891.47 143.8,-895.74"/>
<text text-anchor="middle" x="125.45" y="-924.15" font-family="Times,serif" font-size="14.00">b</text>
</g>
<!-- [&#39;q6&#39;, &#39;q7&#39;] -->
<g id="node2" class="node">
<title>[&#39;q6&#39;, &#39;q7&#39;]</title>
<ellipse fill="none" stroke="black" cx="365.45" cy="-407.68" rx="56.59" ry="18"/>
<text text-anchor="middle" x="365.45" y="-403.98" font-family="Times,serif" font-size="14.00">[&#39;q6&#39;, &#39;q7&#39;]</text>
</g>
<!-- [&#39;q6&#39;] -->
<g id="node3" class="node">
<title>[&#39;q6&#39;]</title>
<ellipse fill="none" stroke="black" cx="365.45" cy="-494.68" rx="34.39" ry="18"/>
<text text-anchor="middle" x="365.45" y="-490.98" font-family="Times,serif" font-size="14.00">[&#39;q6&#39;]</text>
</g>
<!-- [&#39;q6&#39;, &#39;q7&#39;]&#45;&gt;[&#39;q6&#39;] -->
<g id="edge14" class="edge">
<title>[&#39;q6&#39;, &#39;q7&#39;]&#45;&gt;[&#39;q6&#39;]</title>
<path fill="none" stroke="black" d="M365.45,-425.85C365.45,-437.48 365.45,-453.1 365.45,-466.41"/>
<polygon fill="black" stroke="black" points="361.95,-466.47 365.45,-476.47 368.95,-466.47 361.95,-466.47"/>
<text text-anchor="middle" x="370.45" y="-447.48" font-family="Times,serif" font-size="14.00">b</text>
</g>
<!-- [&#39;q4&#39;, &#39;q6&#39;, &#39;q7&#39;] -->
<g id="node9" class="node">
<title>[&#39;q4&#39;, &#39;q6&#39;, &#39;q7&#39;]</title>
<ellipse fill="none" stroke="black" cx="365.45" cy="-255.38" rx="79.1" ry="79.1"/>
<ellipse fill="none" stroke="black" cx="365.45" cy="-255.38" rx="83.09" ry="83.09"/>
<text text-anchor="middle" x="365.45" y="-251.68" font-family="Times,serif" font-size="14.00">[&#39;q4&#39;, &#39;q6&#39;, &#39;q7&#39;]</text>
</g>
<!-- [&#39;q6&#39;, &#39;q7&#39;]&#45;&gt;[&#39;q4&#39;, &#39;q6&#39;, &#39;q7&#39;] -->
<g id="edge13" class="edge">
<title>[&#39;q6&#39;, &#39;q7&#39;]&#45;&gt;[&#39;q4&#39;, &#39;q6&#39;, &#39;q7&#39;]</title>
<path fill="none" stroke="black" d="M365.45,-389.44C365.45,-378.94 365.45,-364.61 365.45,-349.24"/>
<polygon fill="black" stroke="black" points="368.95,-349.01 365.45,-339.01 361.95,-349.01 368.95,-349.01"/>
<text text-anchor="middle" x="369.95" y="-360.48" font-family="Times,serif" font-size="14.00">a</text>
</g>
<!-- [&#39;q6&#39;]&#45;&gt;[&#39;q6&#39;, &#39;q7&#39;] -->
<g id="edge9" class="edge">
<title>[&#39;q6&#39;]&#45;&gt;[&#39;q6&#39;, &#39;q7&#39;]</title>
<path fill="none" stroke="black" d="M356.69,-477.04C354.15,-471.37 351.72,-464.89 350.45,-458.68 348.85,-450.9 350.1,-442.59 352.44,-435.02"/>
<polygon fill="black" stroke="black" points="355.74,-436.2 355.99,-425.61 349.19,-433.73 355.74,-436.2"/>
<text text-anchor="middle" x="354.95" y="-447.48" font-family="Times,serif" font-size="14.00">a</text>
</g>
<!-- [&#39;q6&#39;]&#45;&gt;[&#39;q6&#39;] -->
<g id="edge10" class="edge">
<title>[&#39;q6&#39;]&#45;&gt;[&#39;q6&#39;]</title>
<path fill="none" stroke="black" d="M396.68,-502.53C408.31,-502.79 417.89,-500.17 417.89,-494.68 417.89,-490.9 413.37,-488.48 406.75,-487.42"/>
<polygon fill="black" stroke="black" points="406.87,-483.92 396.68,-486.82 406.45,-490.91 406.87,-483.92"/>
<text text-anchor="middle" x="422.89" y="-490.98" font-family="Times,serif" font-size="14.00">b</text>
</g>
<!-- [&#39;q2&#39;]&#45;&gt;[&#39;q2&#39;, &#39;q3&#39;] -->
<g id="edge8" class="edge">
<title>[&#39;q2&#39;]&#45;&gt;[&#39;q2&#39;, &#39;q3&#39;]</title>
<path fill="none" stroke="black" d="M37.62,-836.99C43.17,-866.6 54.68,-928.03 61.36,-963.64"/>
<polygon fill="black" stroke="black" points="57.98,-964.62 63.26,-973.8 64.86,-963.33 57.98,-964.62"/>
<text text-anchor="middle" x="60.45" y="-924.15" font-family="Times,serif" font-size="14.00">b</text>
</g>
<!-- [&#39;q2&#39;]&#45;&gt;[&#39;q2&#39;] -->
<g id="edge7" class="edge">
<title>[&#39;q2&#39;]&#45;&gt;[&#39;q2&#39;]</title>
<path fill="none" stroke="black" d="M51.1,-834.86C68.04,-844.15 86.89,-838.89 86.89,-819.06 86.89,-802.95 74.45,-796.45 60.69,-799.57"/>
<polygon fill="black" stroke="black" points="59.17,-796.4 51.1,-803.26 61.69,-802.93 59.17,-796.4"/>
<text text-anchor="middle" x="91.39" y="-815.36" font-family="Times,serif" font-size="14.00">a</text>
</g>
<!-- [&#39;q4&#39;, &#39;q6&#39;] -->
<g id="node5" class="node">
<title>[&#39;q4&#39;, &#39;q6&#39;]</title>
<ellipse fill="none" stroke="black" cx="365.45" cy="-60.54" rx="56.59" ry="56.59"/>
<ellipse fill="none" stroke="black" cx="365.45" cy="-60.54" rx="60.59" ry="60.59"/>
<text text-anchor="middle" x="365.45" y="-56.84" font-family="Times,serif" font-size="14.00">[&#39;q4&#39;, &#39;q6&#39;]</text>
</g>
<!-- [&#39;q4&#39;, &#39;q6&#39;]&#45;&gt;[&#39;q4&#39;, &#39;q6&#39;] -->
<g id="edge22" class="edge">
<title>[&#39;q4&#39;, &#39;q6&#39;]&#45;&gt;[&#39;q4&#39;, &#39;q6&#39;]</title>
<path fill="none" stroke="black" d="M424.02,-76C435.68,-74.26 443.99,-69.11 443.99,-60.54 443.99,-54.66 440.06,-50.38 433.82,-47.72"/>
<polygon fill="black" stroke="black" points="434.59,-44.3 424.02,-45.09 432.77,-51.06 434.59,-44.3"/>
<text text-anchor="middle" x="448.99" y="-56.84" font-family="Times,serif" font-size="14.00">b</text>
</g>
<!-- [&#39;q4&#39;, &#39;q6&#39;]&#45;&gt;[&#39;q4&#39;, &#39;q6&#39;, &#39;q7&#39;] -->
<g id="edge21" class="edge">
<title>[&#39;q4&#39;, &#39;q6&#39;]&#45;&gt;[&#39;q4&#39;, &#39;q6&#39;, &#39;q7&#39;]</title>
<path fill="none" stroke="black" d="M365.45,-121.16C365.45,-134.11 365.45,-148.1 365.45,-161.97"/>
<polygon fill="black" stroke="black" points="361.95,-162.04 365.45,-172.04 368.95,-162.04 361.95,-162.04"/>
<text text-anchor="middle" x="369.95" y="-142.89" font-family="Times,serif" font-size="14.00">a</text>
</g>
<!-- [&#39;q2&#39;, &#39;q3&#39;, &#39;q4&#39;]&#45;&gt;[&#39;q2&#39;, &#39;q3&#39;, &#39;q4&#39;] -->
<g id="edge16" class="edge">
<title>[&#39;q2&#39;, &#39;q3&#39;, &#39;q4&#39;]&#45;&gt;[&#39;q2&#39;, &#39;q3&#39;, &#39;q4&#39;]</title>
<path fill="none" stroke="black" d="M278.92,-837.33C290.76,-834.43 298.74,-828.34 298.74,-819.06 298.74,-812.53 294.79,-807.58 288.34,-804.21"/>
<polygon fill="black" stroke="black" points="289.51,-800.92 278.92,-800.79 287.12,-807.49 289.51,-800.92"/>
<text text-anchor="middle" x="303.74" y="-815.36" font-family="Times,serif" font-size="14.00">b</text>
</g>
<!-- [&#39;q2&#39;, &#39;q4&#39;] -->
<g id="node8" class="node">
<title>[&#39;q2&#39;, &#39;q4&#39;]</title>
<ellipse fill="none" stroke="black" cx="197.45" cy="-624.22" rx="56.59" ry="56.59"/>
<ellipse fill="none" stroke="black" cx="197.45" cy="-624.22" rx="60.59" ry="60.59"/>
<text text-anchor="middle" x="197.45" y="-620.52" font-family="Times,serif" font-size="14.00">[&#39;q2&#39;, &#39;q4&#39;]</text>
</g>
<!-- [&#39;q2&#39;, &#39;q3&#39;, &#39;q4&#39;]&#45;&gt;[&#39;q2&#39;, &#39;q4&#39;] -->
<g id="edge15" class="edge">
<title>[&#39;q2&#39;, &#39;q3&#39;, &#39;q4&#39;]&#45;&gt;[&#39;q2&#39;, &#39;q4&#39;]</title>
<path fill="none" stroke="black" d="M182.27,-736.88C181.48,-725.44 181.39,-713.82 182.45,-702.77 182.74,-699.72 183.09,-696.63 183.5,-693.5"/>
<polygon fill="black" stroke="black" points="186.98,-693.88 184.94,-683.48 180.05,-692.88 186.98,-693.88"/>
<text text-anchor="middle" x="186.95" y="-706.57" font-family="Times,serif" font-size="14.00">a</text>
</g>
<!-- [&#39;q1&#39;] -->
<g id="node7" class="node">
<title>[&#39;q1&#39;]</title>
<ellipse fill="none" stroke="black" cx="332.45" cy="-991.8" rx="34.4" ry="34.4"/>
<ellipse fill="none" stroke="black" cx="332.45" cy="-991.8" rx="38.39" ry="38.39"/>
<text text-anchor="middle" x="332.45" y="-988.1" font-family="Times,serif" font-size="14.00">[&#39;q1&#39;]</text>
</g>
<!-- [&#39;q1&#39;]&#45;&gt;[&#39;q2&#39;] -->
<g id="edge3" class="edge">
<title>[&#39;q1&#39;]&#45;&gt;[&#39;q2&#39;]</title>
<path fill="none" stroke="black" d="M295.77,-978.92C240.03,-960.48 137.14,-924.75 105.45,-902.35 83.33,-886.72 63.7,-862.75 50.71,-844.71"/>
<polygon fill="black" stroke="black" points="53.49,-842.57 44.89,-836.39 47.76,-846.59 53.49,-842.57"/>
<text text-anchor="middle" x="178.95" y="-924.15" font-family="Times,serif" font-size="14.00">a</text>
</g>
<!-- [&#39;q0&#39;] -->
<g id="node11" class="node">
<title>[&#39;q0&#39;]</title>
<ellipse fill="aquamarine" stroke="aquamarine" cx="365.45" cy="-819.06" rx="34.4" ry="34.4"/>
<ellipse fill="none" stroke="aquamarine" cx="365.45" cy="-819.06" rx="38.39" ry="38.39"/>
<text text-anchor="middle" x="365.45" y="-815.36" font-family="Times,serif" font-size="14.00">[&#39;q0&#39;]</text>
</g>
<!-- [&#39;q1&#39;]&#45;&gt;[&#39;q0&#39;] -->
<g id="edge4" class="edge">
<title>[&#39;q1&#39;]&#45;&gt;[&#39;q0&#39;]</title>
<path fill="none" stroke="black" d="M330.25,-953.33C330.21,-942.62 330.74,-930.98 332.45,-920.35 335.43,-901.74 341.34,-881.9 347.35,-864.82"/>
<polygon fill="black" stroke="black" points="350.75,-865.71 350.87,-855.12 344.17,-863.32 350.75,-865.71"/>
<text text-anchor="middle" x="337.45" y="-924.15" font-family="Times,serif" font-size="14.00">b</text>
</g>
<!-- [&#39;q2&#39;, &#39;q4&#39;]&#45;&gt;[&#39;q2&#39;, &#39;q3&#39;, &#39;q4&#39;] -->
<g id="edge20" class="edge">
<title>[&#39;q2&#39;, &#39;q4&#39;]&#45;&gt;[&#39;q2&#39;, &#39;q3&#39;, &#39;q4&#39;]</title>
<path fill="none" stroke="black" d="M197.45,-684.83C197.45,-697.78 197.45,-711.77 197.45,-725.65"/>
<polygon fill="black" stroke="black" points="193.95,-725.72 197.45,-735.72 200.95,-725.72 193.95,-725.72"/>
<text text-anchor="middle" x="202.45" y="-706.57" font-family="Times,serif" font-size="14.00">b</text>
</g>
<!-- [&#39;q2&#39;, &#39;q4&#39;]&#45;&gt;[&#39;q2&#39;, &#39;q4&#39;] -->
<g id="edge19" class="edge">
<title>[&#39;q2&#39;, &#39;q4&#39;]&#45;&gt;[&#39;q2&#39;, &#39;q4&#39;]</title>
<path fill="none" stroke="black" d="M256.02,-639.68C267.68,-637.94 275.99,-632.79 275.99,-624.22 275.99,-618.33 272.06,-614.06 265.82,-611.39"/>
<polygon fill="black" stroke="black" points="266.59,-607.97 256.02,-608.76 264.77,-614.74 266.59,-607.97"/>
<text text-anchor="middle" x="280.49" y="-620.52" font-family="Times,serif" font-size="14.00">a</text>
</g>
<!-- [&#39;q4&#39;, &#39;q6&#39;, &#39;q7&#39;]&#45;&gt;[&#39;q4&#39;, &#39;q6&#39;] -->
<g id="edge18" class="edge">
<title>[&#39;q4&#39;, &#39;q6&#39;, &#39;q7&#39;]&#45;&gt;[&#39;q4&#39;, &#39;q6&#39;]</title>
<path fill="none" stroke="black" d="M350.27,-173.21C349.48,-161.77 349.39,-150.14 350.45,-139.09 350.74,-136.05 351.09,-132.95 351.5,-129.83"/>
<polygon fill="black" stroke="black" points="354.98,-130.2 352.94,-119.8 348.05,-129.2 354.98,-130.2"/>
<text text-anchor="middle" x="355.45" y="-142.89" font-family="Times,serif" font-size="14.00">b</text>
</g>
<!-- [&#39;q4&#39;, &#39;q6&#39;, &#39;q7&#39;]&#45;&gt;[&#39;q4&#39;, &#39;q6&#39;, &#39;q7&#39;] -->
<g id="edge17" class="edge">
<title>[&#39;q4&#39;, &#39;q6&#39;, &#39;q7&#39;]&#45;&gt;[&#39;q4&#39;, &#39;q6&#39;, &#39;q7&#39;]</title>
<path fill="none" stroke="black" d="M446.92,-273.66C458.76,-270.76 466.74,-264.66 466.74,-255.38 466.74,-248.86 462.79,-243.91 456.34,-240.54"/>
<polygon fill="black" stroke="black" points="457.51,-237.24 446.92,-237.11 455.12,-243.82 457.51,-237.24"/>
<text text-anchor="middle" x="471.24" y="-251.68" font-family="Times,serif" font-size="14.00">a</text>
</g>
<!-- [&#39;q5&#39;] -->
<g id="node10" class="node">
<title>[&#39;q5&#39;]</title>
<ellipse fill="none" stroke="black" cx="365.45" cy="-624.22" rx="34.4" ry="34.4"/>
<ellipse fill="none" stroke="black" cx="365.45" cy="-624.22" rx="38.39" ry="38.39"/>
<text text-anchor="middle" x="365.45" y="-620.52" font-family="Times,serif" font-size="14.00">[&#39;q5&#39;]</text>
</g>
<!-- [&#39;q5&#39;]&#45;&gt;[&#39;q6&#39;] -->
<g id="edge6" class="edge">
<title>[&#39;q5&#39;]&#45;&gt;[&#39;q6&#39;]</title>
<path fill="none" stroke="black" d="M365.45,-585.64C365.45,-565.59 365.45,-541.35 365.45,-523.09"/>
<polygon fill="black" stroke="black" points="368.95,-522.84 365.45,-512.84 361.95,-522.84 368.95,-522.84"/>
<text text-anchor="middle" x="370.45" y="-534.48" font-family="Times,serif" font-size="14.00">b</text>
</g>
<!-- [&#39;q5&#39;]&#45;&gt;[&#39;q0&#39;] -->
<g id="edge5" class="edge">
<title>[&#39;q5&#39;]&#45;&gt;[&#39;q0&#39;]</title>
<path fill="none" stroke="black" d="M365.45,-662.76C365.45,-693.4 365.45,-736.88 365.45,-770.04"/>
<polygon fill="black" stroke="black" points="361.95,-770.42 365.45,-780.42 368.95,-770.42 361.95,-770.42"/>
<text text-anchor="middle" x="369.95" y="-706.57" font-family="Times,serif" font-size="14.00">a</text>
</g>
<!-- [&#39;q0&#39;]&#45;&gt;[&#39;q1&#39;] -->
<g id="edge1" class="edge">
<title>[&#39;q0&#39;]&#45;&gt;[&#39;q1&#39;]</title>
<path fill="none" stroke="black" d="M358.48,-856.94C354.19,-879.57 348.55,-909.15 343.45,-935.35 342.9,-938.15 342.34,-941.03 341.77,-943.93"/>
<polygon fill="black" stroke="black" points="338.32,-943.33 339.82,-953.82 345.19,-944.69 338.32,-943.33"/>
<text text-anchor="middle" x="349.95" y="-924.15" font-family="Times,serif" font-size="14.00">a</text>
</g>
<!-- [&#39;q0&#39;]&#45;&gt;[&#39;q5&#39;] -->
<g id="edge2" class="edge">
<title>[&#39;q0&#39;]&#45;&gt;[&#39;q5&#39;]</title>
<path fill="none" stroke="black" d="M355.91,-781.79C351.08,-759.13 346.74,-729.3 349.45,-702.77 350.48,-692.61 352.26,-681.82 354.27,-671.63"/>
<polygon fill="black" stroke="black" points="357.73,-672.17 356.33,-661.67 350.88,-670.75 357.73,-672.17"/>
<text text-anchor="middle" x="354.45" y="-706.57" font-family="Times,serif" font-size="14.00">b</text>
</g>
</g>
</svg>
