<?xml version="1.0" standalone="no"?>
<!DOCTYPE svg PUBLIC "-//W3C//DTD SVG 1.1//EN" "https://www.w3.org/Graphics/SVG/1.1/DTD/svg11.dtd">

<svg width="800" height="600" version="1.1" xmlns="http://www.w3.org/2000/svg">
  <ellipse stroke="black" stroke-width="1" fill="none" cx="87.5" cy="270.5" rx="30" ry="30" />
  <text x="77.5" y="276.5" font-family="Times New Roman" font-size="20">q0</text>
  <ellipse stroke="black" stroke-width="1" fill="none" cx="87.5" cy="270.5" rx="24" ry="24" />
  <ellipse stroke="black" stroke-width="1" fill="none" cx="206.5" cy="185.5" rx="30" ry="30" />
  <text x="196.5" y="191.5" font-family="Times New Roman" font-size="20">q1</text>
  <ellipse stroke="black" stroke-width="1" fill="none" cx="206.5" cy="185.5" rx="24" ry="24" />
  <ellipse stroke="black" stroke-width="1" fill="none" cx="358.5" cy="185.5" rx="30" ry="30" />
  <text x="348.5" y="191.5" font-family="Times New Roman" font-size="20">q2</text>
  <ellipse stroke="black" stroke-width="1" fill="none" cx="508.5" cy="185.5" rx="30" ry="30" />
  <text x="498.5" y="191.5" font-family="Times New Roman" font-size="20">q3</text>
  <ellipse stroke="black" stroke-width="1" fill="none" cx="628.5" cy="270.5" rx="30" ry="30" />
  <text x="618.5" y="276.5" font-family="Times New Roman" font-size="20">q4</text>
  <ellipse stroke="black" stroke-width="1" fill="none" cx="628.5" cy="270.5" rx="24" ry="24" />
  <ellipse stroke="black" stroke-width="1" fill="none" cx="206.5" cy="364.5" rx="30" ry="30" />
  <text x="196.5" y="370.5" font-family="Times New Roman" font-size="20">q5</text>
  <ellipse stroke="black" stroke-width="1" fill="none" cx="206.5" cy="364.5" rx="24" ry="24" />
  <ellipse stroke="black" stroke-width="1" fill="none" cx="358.5" cy="364.5" rx="30" ry="30" />
  <text x="348.5" y="370.5" font-family="Times New Roman" font-size="20">q6</text>
  <ellipse stroke="black" stroke-width="1" fill="none" cx="508.5" cy="364.5" rx="30" ry="30" />
  <text x="498.5" y="370.5" font-family="Times New Roman" font-size="20">q7</text>
  <path stroke="black" stroke-width="1" fill="none" d="M 87.913,240.673 A 81.177,81.177 0 0 1 178.152,176.217" />
  <polygon fill="black" stroke-width="1" points="178.152,176.217 170.877,170.21 169.564,180.123" />
  <text x="106.5" y="181.5" font-family="Times New Roman" font-size="20">a</text>
  <polygon stroke="black" stroke-width="1" points="182.088,202.937 111.912,253.063" />
  <polygon fill="black" stroke-width="1" points="111.912,253.063 121.328,252.482 115.516,244.344" />
  <text x="131.5" y="219.5" font-family="Times New Roman" font-size="20">b</text>
  <path stroke="black" stroke-width="1" fill="none" d="M 176.789,367.613 A 94.465,94.465 0 0 1 91.351,300.125" />
  <polygon fill="black" stroke-width="1" points="176.789,367.613 169.072,362.186 168.529,372.171" />
  <text x="108.5" y="368.5" font-family="Times New Roman" font-size="20">b</text>
  <polygon stroke="black" stroke-width="1" points="182.959,345.904 111.041,289.096" />
  <polygon fill="black" stroke-width="1" points="111.041,289.096 114.22,297.978 120.418,290.131" />
  <text x="152.5" y="308.5" font-family="Times New Roman" font-size="20">a</text>
  <polygon stroke="black" stroke-width="1" points="236.5,185.5 328.5,185.5" />
  <polygon fill="black" stroke-width="1" points="328.5,185.5 320.5,180.5 320.5,190.5" />
  <text x="278.5" y="206.5" font-family="Times New Roman" font-size="20">a</text>
  <path stroke="black" stroke-width="1" fill="none" d="M 345.275,158.703 A 22.5,22.5 0 1 1 371.725,158.703" />
  <text x="344.5" y="109.5" font-family="Times New Roman" font-size="20">a, b</text>
  <polygon fill="black" stroke-width="1" points="371.725,158.703 380.473,155.17 372.382,149.292" />
  <path stroke="black" stroke-width="1" fill="none" d="M 371.725,391.297 A 22.5,22.5 0 1 1 345.275,391.297" />
  <text x="344.5" y="453.5" font-family="Times New Roman" font-size="20">a, b</text>
  <polygon fill="black" stroke-width="1" points="345.275,391.297 336.527,394.83 344.618,400.708" />
  <polygon stroke="black" stroke-width="1" points="236.5,364.5 328.5,364.5" />
  <polygon fill="black" stroke-width="1" points="328.5,364.5 320.5,359.5 320.5,369.5" />
  <text x="277.5" y="385.5" font-family="Times New Roman" font-size="20">b</text>
  <polygon stroke="black" stroke-width="1" points="388.5,364.5 478.5,364.5" />
  <polygon fill="black" stroke-width="1" points="478.5,364.5 470.5,359.5 470.5,369.5" />
  <text x="429.5" y="385.5" font-family="Times New Roman" font-size="20">a</text>
  <polygon stroke="black" stroke-width="1" points="532.117,346 604.883,289" />
  <polygon fill="black" stroke-width="1" points="604.883,289 595.502,289.997 601.669,297.869" />
  <text x="573.5" y="338.5" font-family="Times New Roman" font-size="20">a</text>
  <polygon stroke="black" stroke-width="1" points="388.5,185.5 478.5,185.5" />
  <polygon fill="black" stroke-width="1" points="478.5,185.5 470.5,180.5 470.5,190.5" />
  <text x="428.5" y="206.5" font-family="Times New Roman" font-size="20">b</text>
  <polygon stroke="black" stroke-width="1" points="532.981,202.841 604.019,253.159" />
  <polygon fill="black" stroke-width="1" points="604.019,253.159 600.381,244.455 594.601,252.615" />
  <text x="553.5" y="248.5" font-family="Times New Roman" font-size="20">b</text>
  <path stroke="black" stroke-width="1" fill="none" d="M 655.297,257.275 A 22.5,22.5 0 1 1 655.297,283.725" />
  <text x="701.5" y="276.5" font-family="Times New Roman" font-size="20">a, b</text>
  <polygon fill="black" stroke-width="1" points="655.297,283.725 658.83,292.473 664.708,284.382" />
</svg>