<?xml version="1.0" encoding="UTF-8" standalone="no"?>
<!DOCTYPE svg PUBLIC "-//W3C//DTD SVG 1.1//EN"
 "http://www.w3.org/Graphics/SVG/1.1/DTD/svg11.dtd">
<!-- Generated by graphviz version 2.43.0 (0)
 -->
<!-- Title: %3 Pages: 1 -->
<svg width="191pt" height="570pt"
 viewBox="0.00 0.00 191.00 569.98" xmlns="http://www.w3.org/2000/svg" xmlns:xlink="http://www.w3.org/1999/xlink">
<g id="graph0" class="graph" transform="scale(1 1) rotate(0) translate(4 565.98)">
<title>%3</title>
<polygon fill="white" stroke="transparent" points="-4,4 -4,-565.98 187,-565.98 187,4 -4,4"/>
<!-- q2 -->
<g id="node1" class="node">
<title>q2</title>
<ellipse fill="none" stroke="black" cx="111" cy="-209.5" rx="27" ry="18"/>
<text text-anchor="middle" x="111" y="-205.8" font-family="Times,serif" font-size="14.00">q2</text>
</g>
<!-- q2&#45;&gt;q2 -->
<g id="edge5" class="edge">
<title>q2&#45;&gt;q2</title>
<path fill="none" stroke="black" d="M135.53,-217.25C146.51,-217.99 156,-215.4 156,-209.5 156,-205.53 151.72,-203.06 145.57,-202.09"/>
<polygon fill="black" stroke="black" points="145.65,-198.59 135.53,-201.74 145.41,-205.59 145.65,-198.59"/>
<text text-anchor="middle" x="169.5" y="-205.8" font-family="Times,serif" font-size="14.00">a, b</text>
</g>
<!-- q3 -->
<g id="node2" class="node">
<title>q3</title>
<ellipse fill="none" stroke="black" cx="109" cy="-122.5" rx="27" ry="18"/>
<text text-anchor="middle" x="109" y="-118.8" font-family="Times,serif" font-size="14.00">q3</text>
</g>
<!-- q2&#45;&gt;q3 -->
<g id="edge6" class="edge">
<title>q2&#45;&gt;q3</title>
<path fill="none" stroke="black" d="M110.6,-191.29C110.32,-179.66 109.95,-164.04 109.64,-150.73"/>
<polygon fill="black" stroke="black" points="113.14,-150.59 109.4,-140.67 106.14,-150.75 113.14,-150.59"/>
<text text-anchor="middle" x="116" y="-162.3" font-family="Times,serif" font-size="14.00">b</text>
</g>
<!-- q4 -->
<g id="node6" class="node">
<title>q4</title>
<ellipse fill="none" stroke="black" cx="66" cy="-26.75" rx="22.96" ry="22.96"/>
<ellipse fill="none" stroke="black" cx="66" cy="-26.75" rx="27" ry="27"/>
<text text-anchor="middle" x="66" y="-23.05" font-family="Times,serif" font-size="14.00">q4</text>
</g>
<!-- q3&#45;&gt;q4 -->
<g id="edge7" class="edge">
<title>q3&#45;&gt;q4</title>
<path fill="none" stroke="black" d="M101.51,-105.17C95.9,-92.94 88.05,-75.82 81.15,-60.78"/>
<polygon fill="black" stroke="black" points="84.14,-58.9 76.79,-51.27 77.78,-61.82 84.14,-58.9"/>
<text text-anchor="middle" x="98" y="-75.3" font-family="Times,serif" font-size="14.00">b</text>
</g>
<!-- q6 -->
<g id="node3" class="node">
<title>q6</title>
<ellipse fill="none" stroke="black" cx="27" cy="-430.74" rx="27" ry="18"/>
<text text-anchor="middle" x="27" y="-427.04" font-family="Times,serif" font-size="14.00">q6</text>
</g>
<!-- q6&#45;&gt;q6 -->
<g id="edge12" class="edge">
<title>q6&#45;&gt;q6</title>
<path fill="none" stroke="black" d="M50.15,-440.2C61.7,-441.51 72,-438.36 72,-430.74 72,-425.5 67.13,-422.38 60.34,-421.36"/>
<polygon fill="black" stroke="black" points="60.18,-417.86 50.15,-421.28 60.13,-424.86 60.18,-417.86"/>
<text text-anchor="middle" x="85.5" y="-427.04" font-family="Times,serif" font-size="14.00">a, b</text>
</g>
<!-- q7 -->
<g id="node4" class="node">
<title>q7</title>
<ellipse fill="none" stroke="black" cx="43" cy="-263.5" rx="27" ry="18"/>
<text text-anchor="middle" x="43" y="-259.8" font-family="Times,serif" font-size="14.00">q7</text>
</g>
<!-- q6&#45;&gt;q7 -->
<g id="edge11" class="edge">
<title>q6&#45;&gt;q7</title>
<path fill="none" stroke="black" d="M28.65,-412.68C31.42,-384.11 37.01,-326.34 40.34,-291.98"/>
<polygon fill="black" stroke="black" points="43.85,-292 41.33,-281.71 36.89,-291.33 43.85,-292"/>
<text text-anchor="middle" x="37.5" y="-374.79" font-family="Times,serif" font-size="14.00">a</text>
</g>
<!-- q7&#45;&gt;q4 -->
<g id="edge13" class="edge">
<title>q7&#45;&gt;q4</title>
<path fill="none" stroke="black" d="M44.69,-245.23C48.43,-207.1 57.45,-114.99 62.48,-63.71"/>
<polygon fill="black" stroke="black" points="65.96,-64.02 63.45,-53.73 59,-63.34 65.96,-64.02"/>
<text text-anchor="middle" x="57.5" y="-162.3" font-family="Times,serif" font-size="14.00">a</text>
</g>
<!-- q5 -->
<g id="node5" class="node">
<title>q5</title>
<ellipse fill="none" stroke="black" cx="112" cy="-535.24" rx="22.96" ry="22.96"/>
<ellipse fill="none" stroke="black" cx="112" cy="-535.24" rx="27" ry="27"/>
<text text-anchor="middle" x="112" y="-531.54" font-family="Times,serif" font-size="14.00">q5</text>
</g>
<!-- q5&#45;&gt;q6 -->
<g id="edge10" class="edge">
<title>q5&#45;&gt;q6</title>
<path fill="none" stroke="black" d="M95.21,-513.99C81.15,-497.04 61.09,-472.85 46.36,-455.09"/>
<polygon fill="black" stroke="black" points="48.69,-452.41 39.61,-446.95 43.3,-456.88 48.69,-452.41"/>
<text text-anchor="middle" x="80" y="-479.29" font-family="Times,serif" font-size="14.00">b</text>
</g>
<!-- q0 -->
<g id="node8" class="node">
<title>q0</title>
<ellipse fill="aquamarine" stroke="aquamarine" cx="144" cy="-430.74" rx="22.96" ry="22.96"/>
<ellipse fill="none" stroke="aquamarine" cx="144" cy="-430.74" rx="27" ry="27"/>
<text text-anchor="middle" x="144" y="-427.04" font-family="Times,serif" font-size="14.00">q0</text>
</g>
<!-- q5&#45;&gt;q0 -->
<g id="edge9" class="edge">
<title>q5&#45;&gt;q0</title>
<path fill="none" stroke="black" d="M109.78,-508.53C109.66,-498.05 110.56,-485.96 114,-475.49 115.73,-470.24 118.29,-465.05 121.21,-460.17"/>
<polygon fill="black" stroke="black" points="124.14,-462.08 126.73,-451.8 118.3,-458.22 124.14,-462.08"/>
<text text-anchor="middle" x="118.5" y="-479.29" font-family="Times,serif" font-size="14.00">a</text>
</g>
<!-- q4&#45;&gt;q4 -->
<g id="edge8" class="edge">
<title>q4&#45;&gt;q4</title>
<path fill="none" stroke="black" d="M91.3,-36.41C101.83,-37.08 110.75,-33.86 110.75,-26.75 110.75,-22.08 106.91,-19.09 101.29,-17.77"/>
<polygon fill="black" stroke="black" points="101.52,-14.28 91.3,-17.08 101.04,-21.27 101.52,-14.28"/>
<text text-anchor="middle" x="124.25" y="-23.05" font-family="Times,serif" font-size="14.00">a, b</text>
</g>
<!-- q1 -->
<g id="node7" class="node">
<title>q1</title>
<ellipse fill="none" stroke="black" cx="112" cy="-326.24" rx="22.96" ry="22.96"/>
<ellipse fill="none" stroke="black" cx="112" cy="-326.24" rx="27" ry="27"/>
<text text-anchor="middle" x="112" y="-322.54" font-family="Times,serif" font-size="14.00">q1</text>
</g>
<!-- q1&#45;&gt;q2 -->
<g id="edge3" class="edge">
<title>q1&#45;&gt;q2</title>
<path fill="none" stroke="black" d="M111.78,-299.49C111.62,-281.15 111.4,-256.55 111.24,-237.86"/>
<polygon fill="black" stroke="black" points="114.74,-237.6 111.15,-227.63 107.74,-237.66 114.74,-237.6"/>
<text text-anchor="middle" x="116.5" y="-259.8" font-family="Times,serif" font-size="14.00">a</text>
</g>
<!-- q1&#45;&gt;q0 -->
<g id="edge4" class="edge">
<title>q1&#45;&gt;q0</title>
<path fill="none" stroke="black" d="M119.79,-352.18C123.81,-365.07 128.79,-381.01 133.18,-395.08"/>
<polygon fill="black" stroke="black" points="129.93,-396.43 136.25,-404.93 136.61,-394.34 129.93,-396.43"/>
<text text-anchor="middle" x="135" y="-374.79" font-family="Times,serif" font-size="14.00">b</text>
</g>
<!-- q0&#45;&gt;q5 -->
<g id="edge2" class="edge">
<title>q0&#45;&gt;q5</title>
<path fill="none" stroke="black" d="M136.21,-456.68C132.19,-469.57 127.21,-485.51 122.82,-499.58"/>
<polygon fill="black" stroke="black" points="119.39,-498.84 119.75,-509.42 126.07,-500.92 119.39,-498.84"/>
<text text-anchor="middle" x="135" y="-479.29" font-family="Times,serif" font-size="14.00">b</text>
</g>
<!-- q0&#45;&gt;q1 -->
<g id="edge1" class="edge">
<title>q0&#45;&gt;q1</title>
<path fill="none" stroke="black" d="M126.4,-410.22C121.05,-403.1 115.84,-394.66 113,-385.99 110.64,-378.79 109.57,-370.83 109.23,-363.15"/>
<polygon fill="black" stroke="black" points="112.73,-362.93 109.18,-352.95 105.73,-362.97 112.73,-362.93"/>
<text text-anchor="middle" x="117.5" y="-374.79" font-family="Times,serif" font-size="14.00">a</text>
</g>
</g>
</svg>
